<svg width="29" height="23" viewBox="0 0 29 23" fill="none" xmlns="http://www.w3.org/2000/svg">
<path d="M3.1876 22.4033C2.80665 22.4033 2.4393 22.2991 2.08556 22.0907C1.73182 21.8823 1.31005 21.3613 0.820251 20.5277C1.41889 19.7722 1.9495 18.9907 2.41209 18.1831C2.90188 17.3494 3.31005 16.4507 3.63658 15.4868C3.96311 14.4969 4.23522 13.4288 4.4529 12.2825C4.67059 11.1363 4.83386 9.87283 4.9427 8.49213C4.48012 8.49213 4.04474 8.41398 3.63658 8.25767C3.22841 8.10137 2.87467 7.89296 2.57535 7.63245C2.27603 7.34589 2.03114 7.0463 1.84066 6.73369C1.67739 6.39503 1.59576 6.04334 1.59576 5.67863C1.59576 4.63659 1.75903 3.77691 2.08556 3.09959C2.41209 2.39622 2.82025 1.84915 3.31005 1.45838C3.79984 1.06762 4.34406 0.794084 4.9427 0.637779C5.56855 0.481473 6.16719 0.40332 6.73862 0.40332C7.88148 0.40332 8.82025 0.507524 9.55494 0.715931C10.3168 0.924339 10.9155 1.22392 11.3509 1.61469C11.8134 2.00545 12.1264 2.47437 12.2896 3.02144C12.4801 3.56851 12.5754 4.16768 12.5754 4.81895C12.5754 6.38201 12.3441 7.99716 11.8815 9.66442C11.4189 11.3056 10.7658 12.9078 9.92229 14.4708C9.10597 16.0078 8.12637 17.4667 6.98352 18.8474C5.84066 20.202 4.57535 21.3873 3.1876 22.4033ZM19.4325 22.4033C19.0515 22.4033 18.6842 22.2991 18.3305 22.0907C17.9767 21.8823 17.5549 21.3613 17.0651 20.5277C17.6638 19.7722 18.1944 18.9907 18.657 18.1831C19.1468 17.3494 19.5549 16.4507 19.8815 15.4868C20.208 14.4969 20.4801 13.4288 20.6978 12.2825C20.9155 11.1363 21.0788 9.87283 21.1876 8.49213C20.725 8.49213 20.2896 8.41398 19.8815 8.25767C19.4733 8.10137 19.1196 7.89296 18.8203 7.63245C18.5209 7.34589 18.276 7.0463 18.0856 6.73369C17.9223 6.39503 17.8407 6.04334 17.8407 5.67863C17.8407 4.63659 18.0039 3.77691 18.3305 3.09959C18.657 2.39622 19.0651 1.84915 19.5549 1.45838C20.0447 1.06762 20.589 0.794084 21.1876 0.637779C21.8134 0.481473 22.4121 0.40332 22.9835 0.40332C24.1264 0.40332 25.0651 0.507524 25.7998 0.715931C26.5617 0.924339 27.1604 1.22392 27.5958 1.61469C28.0583 2.00545 28.3713 2.47437 28.5345 3.02144C28.725 3.56851 28.8203 4.16768 28.8203 4.81895C28.8203 6.38201 28.589 7.99716 28.1264 9.66442C27.6638 11.3056 27.0107 12.9078 26.1672 14.4708C25.3509 16.0078 24.3713 17.4667 23.2284 18.8474C22.0856 20.202 20.8203 21.3873 19.4325 22.4033Z" fill="#59D1CB"/>
</svg>
