<svg width="177" height="177" viewBox="0 0 177 177" fill="none" xmlns="http://www.w3.org/2000/svg">
<path opacity="0.148647" fill-rule="evenodd" clip-rule="evenodd" d="M8.20898 4.3042C8.20898 6.51334 6.41812 8.3042 4.20898 8.3042C1.99985 8.3042 0.208984 6.51334 0.208984 4.3042C0.208984 2.09506 1.99985 0.304199 4.20898 0.304199C6.41812 0.304199 8.20898 2.09506 8.20898 4.3042ZM32.209 4.3042C32.209 6.51334 30.4181 8.3042 28.209 8.3042C25.9998 8.3042 24.209 6.51334 24.209 4.3042C24.209 2.09506 25.9998 0.304199 28.209 0.304199C30.4181 0.304199 32.209 2.09506 32.209 4.3042ZM52.209 8.3042C54.4181 8.3042 56.209 6.51334 56.209 4.3042C56.209 2.09506 54.4181 0.304199 52.209 0.304199C49.9998 0.304199 48.209 2.09506 48.209 4.3042C48.209 6.51334 49.9998 8.3042 52.209 8.3042ZM80.209 4.3042C80.209 6.51334 78.4181 8.3042 76.209 8.3042C73.9998 8.3042 72.209 6.51334 72.209 4.3042C72.209 2.09506 73.9998 0.304199 76.209 0.304199C78.4181 0.304199 80.209 2.09506 80.209 4.3042ZM100.209 8.3042C102.418 8.3042 104.209 6.51334 104.209 4.3042C104.209 2.09506 102.418 0.304199 100.209 0.304199C97.9998 0.304199 96.209 2.09506 96.209 4.3042C96.209 6.51334 97.9998 8.3042 100.209 8.3042ZM128.209 4.3042C128.209 6.51334 126.418 8.3042 124.209 8.3042C122 8.3042 120.209 6.51334 120.209 4.3042C120.209 2.09506 122 0.304199 124.209 0.304199C126.418 0.304199 128.209 2.09506 128.209 4.3042ZM148.209 8.3042C150.418 8.3042 152.209 6.51334 152.209 4.3042C152.209 2.09506 150.418 0.304199 148.209 0.304199C146 0.304199 144.209 2.09506 144.209 4.3042C144.209 6.51334 146 8.3042 148.209 8.3042ZM176.209 4.3042C176.209 6.51334 174.418 8.3042 172.209 8.3042C170 8.3042 168.209 6.51334 168.209 4.3042C168.209 2.09506 170 0.304199 172.209 0.304199C174.418 0.304199 176.209 2.09506 176.209 4.3042ZM4.20898 32.3042C6.41812 32.3042 8.20898 30.5133 8.20898 28.3042C8.20898 26.0951 6.41812 24.3042 4.20898 24.3042C1.99985 24.3042 0.208984 26.0951 0.208984 28.3042C0.208984 30.5133 1.99985 32.3042 4.20898 32.3042ZM32.209 28.3042C32.209 30.5133 30.4181 32.3042 28.209 32.3042C25.9998 32.3042 24.209 30.5133 24.209 28.3042C24.209 26.0951 25.9998 24.3042 28.209 24.3042C30.4181 24.3042 32.209 26.0951 32.209 28.3042ZM52.209 32.3042C54.4181 32.3042 56.209 30.5133 56.209 28.3042C56.209 26.0951 54.4181 24.3042 52.209 24.3042C49.9998 24.3042 48.209 26.0951 48.209 28.3042C48.209 30.5133 49.9998 32.3042 52.209 32.3042ZM80.209 28.3042C80.209 30.5133 78.4181 32.3042 76.209 32.3042C73.9998 32.3042 72.209 30.5133 72.209 28.3042C72.209 26.0951 73.9998 24.3042 76.209 24.3042C78.4181 24.3042 80.209 26.0951 80.209 28.3042ZM100.209 32.3042C102.418 32.3042 104.209 30.5133 104.209 28.3042C104.209 26.0951 102.418 24.3042 100.209 24.3042C97.9998 24.3042 96.209 26.0951 96.209 28.3042C96.209 30.5133 97.9998 32.3042 100.209 32.3042ZM128.209 28.3042C128.209 30.5133 126.418 32.3042 124.209 32.3042C122 32.3042 120.209 30.5133 120.209 28.3042C120.209 26.0951 122 24.3042 124.209 24.3042C126.418 24.3042 128.209 26.0951 128.209 28.3042ZM148.209 32.3042C150.418 32.3042 152.209 30.5133 152.209 28.3042C152.209 26.0951 150.418 24.3042 148.209 24.3042C146 24.3042 144.209 26.0951 144.209 28.3042C144.209 30.5133 146 32.3042 148.209 32.3042ZM176.209 28.3042C176.209 30.5133 174.418 32.3042 172.209 32.3042C170 32.3042 168.209 30.5133 168.209 28.3042C168.209 26.0951 170 24.3042 172.209 24.3042C174.418 24.3042 176.209 26.0951 176.209 28.3042ZM4.20898 56.3042C6.41812 56.3042 8.20898 54.5133 8.20898 52.3042C8.20898 50.0951 6.41812 48.3042 4.20898 48.3042C1.99985 48.3042 0.208984 50.0951 0.208984 52.3042C0.208984 54.5133 1.99985 56.3042 4.20898 56.3042ZM32.209 52.3042C32.209 54.5133 30.4181 56.3042 28.209 56.3042C25.9998 56.3042 24.209 54.5133 24.209 52.3042C24.209 50.0951 25.9998 48.3042 28.209 48.3042C30.4181 48.3042 32.209 50.0951 32.209 52.3042ZM52.209 56.3042C54.4181 56.3042 56.209 54.5133 56.209 52.3042C56.209 50.0951 54.4181 48.3042 52.209 48.3042C49.9998 48.3042 48.209 50.0951 48.209 52.3042C48.209 54.5133 49.9998 56.3042 52.209 56.3042ZM80.209 52.3042C80.209 54.5133 78.4181 56.3042 76.209 56.3042C73.9998 56.3042 72.209 54.5133 72.209 52.3042C72.209 50.0951 73.9998 48.3042 76.209 48.3042C78.4181 48.3042 80.209 50.0951 80.209 52.3042ZM100.209 56.3042C102.418 56.3042 104.209 54.5133 104.209 52.3042C104.209 50.0951 102.418 48.3042 100.209 48.3042C97.9998 48.3042 96.209 50.0951 96.209 52.3042C96.209 54.5133 97.9998 56.3042 100.209 56.3042ZM128.209 52.3042C128.209 54.5133 126.418 56.3042 124.209 56.3042C122 56.3042 120.209 54.5133 120.209 52.3042C120.209 50.0951 122 48.3042 124.209 48.3042C126.418 48.3042 128.209 50.0951 128.209 52.3042ZM148.209 56.3042C150.418 56.3042 152.209 54.5133 152.209 52.3042C152.209 50.0951 150.418 48.3042 148.209 48.3042C146 48.3042 144.209 50.0951 144.209 52.3042C144.209 54.5133 146 56.3042 148.209 56.3042ZM176.209 52.3042C176.209 54.5133 174.418 56.3042 172.209 56.3042C170 56.3042 168.209 54.5133 168.209 52.3042C168.209 50.0951 170 48.3042 172.209 48.3042C174.418 48.3042 176.209 50.0951 176.209 52.3042ZM4.20898 80.3042C6.41812 80.3042 8.20898 78.5133 8.20898 76.3042C8.20898 74.0951 6.41812 72.3042 4.20898 72.3042C1.99985 72.3042 0.208984 74.0951 0.208984 76.3042C0.208984 78.5133 1.99985 80.3042 4.20898 80.3042ZM32.209 76.3042C32.209 78.5133 30.4181 80.3042 28.209 80.3042C25.9998 80.3042 24.209 78.5133 24.209 76.3042C24.209 74.0951 25.9998 72.3042 28.209 72.3042C30.4181 72.3042 32.209 74.0951 32.209 76.3042ZM52.209 80.3042C54.4181 80.3042 56.209 78.5133 56.209 76.3042C56.209 74.0951 54.4181 72.3042 52.209 72.3042C49.9998 72.3042 48.209 74.0951 48.209 76.3042C48.209 78.5133 49.9998 80.3042 52.209 80.3042ZM80.209 76.3042C80.209 78.5133 78.4181 80.3042 76.209 80.3042C73.9998 80.3042 72.209 78.5133 72.209 76.3042C72.209 74.0951 73.9998 72.3042 76.209 72.3042C78.4181 72.3042 80.209 74.0951 80.209 76.3042ZM100.209 80.3042C102.418 80.3042 104.209 78.5133 104.209 76.3042C104.209 74.0951 102.418 72.3042 100.209 72.3042C97.9998 72.3042 96.209 74.0951 96.209 76.3042C96.209 78.5133 97.9998 80.3042 100.209 80.3042ZM128.209 76.3042C128.209 78.5133 126.418 80.3042 124.209 80.3042C122 80.3042 120.209 78.5133 120.209 76.3042C120.209 74.0951 122 72.3042 124.209 72.3042C126.418 72.3042 128.209 74.0951 128.209 76.3042ZM148.209 80.3042C150.418 80.3042 152.209 78.5133 152.209 76.3042C152.209 74.0951 150.418 72.3042 148.209 72.3042C146 72.3042 144.209 74.0951 144.209 76.3042C144.209 78.5133 146 80.3042 148.209 80.3042ZM176.209 76.3042C176.209 78.5133 174.418 80.3042 172.209 80.3042C170 80.3042 168.209 78.5133 168.209 76.3042C168.209 74.0951 170 72.3042 172.209 72.3042C174.418 72.3042 176.209 74.0951 176.209 76.3042ZM4.20898 104.304C6.41812 104.304 8.20898 102.513 8.20898 100.304C8.20898 98.0951 6.41812 96.3042 4.20898 96.3042C1.99985 96.3042 0.208984 98.0951 0.208984 100.304C0.208984 102.513 1.99985 104.304 4.20898 104.304ZM32.209 100.304C32.209 102.513 30.4181 104.304 28.209 104.304C25.9998 104.304 24.209 102.513 24.209 100.304C24.209 98.0951 25.9998 96.3042 28.209 96.3042C30.4181 96.3042 32.209 98.0951 32.209 100.304ZM52.209 104.304C54.4181 104.304 56.209 102.513 56.209 100.304C56.209 98.0951 54.4181 96.3042 52.209 96.3042C49.9998 96.3042 48.209 98.0951 48.209 100.304C48.209 102.513 49.9998 104.304 52.209 104.304ZM80.209 100.304C80.209 102.513 78.4181 104.304 76.209 104.304C73.9998 104.304 72.209 102.513 72.209 100.304C72.209 98.0951 73.9998 96.3042 76.209 96.3042C78.4181 96.3042 80.209 98.0951 80.209 100.304ZM100.209 104.304C102.418 104.304 104.209 102.513 104.209 100.304C104.209 98.0951 102.418 96.3042 100.209 96.3042C97.9998 96.3042 96.209 98.0951 96.209 100.304C96.209 102.513 97.9998 104.304 100.209 104.304ZM128.209 100.304C128.209 102.513 126.418 104.304 124.209 104.304C122 104.304 120.209 102.513 120.209 100.304C120.209 98.0951 122 96.3042 124.209 96.3042C126.418 96.3042 128.209 98.0951 128.209 100.304ZM148.209 104.304C150.418 104.304 152.209 102.513 152.209 100.304C152.209 98.0951 150.418 96.3042 148.209 96.3042C146 96.3042 144.209 98.0951 144.209 100.304C144.209 102.513 146 104.304 148.209 104.304ZM176.209 100.304C176.209 102.513 174.418 104.304 172.209 104.304C170 104.304 168.209 102.513 168.209 100.304C168.209 98.0951 170 96.3042 172.209 96.3042C174.418 96.3042 176.209 98.0951 176.209 100.304ZM4.20898 128.304C6.41812 128.304 8.20898 126.513 8.20898 124.304C8.20898 122.095 6.41812 120.304 4.20898 120.304C1.99985 120.304 0.208984 122.095 0.208984 124.304C0.208984 126.513 1.99985 128.304 4.20898 128.304ZM32.209 124.304C32.209 126.513 30.4181 128.304 28.209 128.304C25.9998 128.304 24.209 126.513 24.209 124.304C24.209 122.095 25.9998 120.304 28.209 120.304C30.4181 120.304 32.209 122.095 32.209 124.304ZM52.209 128.304C54.4181 128.304 56.209 126.513 56.209 124.304C56.209 122.095 54.4181 120.304 52.209 120.304C49.9998 120.304 48.209 122.095 48.209 124.304C48.209 126.513 49.9998 128.304 52.209 128.304ZM80.209 124.304C80.209 126.513 78.4181 128.304 76.209 128.304C73.9998 128.304 72.209 126.513 72.209 124.304C72.209 122.095 73.9998 120.304 76.209 120.304C78.4181 120.304 80.209 122.095 80.209 124.304ZM100.209 128.304C102.418 128.304 104.209 126.513 104.209 124.304C104.209 122.095 102.418 120.304 100.209 120.304C97.9998 120.304 96.209 122.095 96.209 124.304C96.209 126.513 97.9998 128.304 100.209 128.304ZM128.209 124.304C128.209 126.513 126.418 128.304 124.209 128.304C122 128.304 120.209 126.513 120.209 124.304C120.209 122.095 122 120.304 124.209 120.304C126.418 120.304 128.209 122.095 128.209 124.304ZM148.209 128.304C150.418 128.304 152.209 126.513 152.209 124.304C152.209 122.095 150.418 120.304 148.209 120.304C146 120.304 144.209 122.095 144.209 124.304C144.209 126.513 146 128.304 148.209 128.304ZM176.209 124.304C176.209 126.513 174.418 128.304 172.209 128.304C170 128.304 168.209 126.513 168.209 124.304C168.209 122.095 170 120.304 172.209 120.304C174.418 120.304 176.209 122.095 176.209 124.304ZM4.20898 152.304C6.41812 152.304 8.20898 150.513 8.20898 148.304C8.20898 146.095 6.41812 144.304 4.20898 144.304C1.99985 144.304 0.208984 146.095 0.208984 148.304C0.208984 150.513 1.99985 152.304 4.20898 152.304ZM32.209 148.304C32.209 150.513 30.4181 152.304 28.209 152.304C25.9998 152.304 24.209 150.513 24.209 148.304C24.209 146.095 25.9998 144.304 28.209 144.304C30.4181 144.304 32.209 146.095 32.209 148.304ZM52.209 152.304C54.4181 152.304 56.209 150.513 56.209 148.304C56.209 146.095 54.4181 144.304 52.209 144.304C49.9998 144.304 48.209 146.095 48.209 148.304C48.209 150.513 49.9998 152.304 52.209 152.304ZM80.209 148.304C80.209 150.513 78.4181 152.304 76.209 152.304C73.9998 152.304 72.209 150.513 72.209 148.304C72.209 146.095 73.9998 144.304 76.209 144.304C78.4181 144.304 80.209 146.095 80.209 148.304ZM100.209 152.304C102.418 152.304 104.209 150.513 104.209 148.304C104.209 146.095 102.418 144.304 100.209 144.304C97.9998 144.304 96.209 146.095 96.209 148.304C96.209 150.513 97.9998 152.304 100.209 152.304ZM128.209 148.304C128.209 150.513 126.418 152.304 124.209 152.304C122 152.304 120.209 150.513 120.209 148.304C120.209 146.095 122 144.304 124.209 144.304C126.418 144.304 128.209 146.095 128.209 148.304ZM148.209 152.304C150.418 152.304 152.209 150.513 152.209 148.304C152.209 146.095 150.418 144.304 148.209 144.304C146 144.304 144.209 146.095 144.209 148.304C144.209 150.513 146 152.304 148.209 152.304ZM176.209 148.304C176.209 150.513 174.418 152.304 172.209 152.304C170 152.304 168.209 150.513 168.209 148.304C168.209 146.095 170 144.304 172.209 144.304C174.418 144.304 176.209 146.095 176.209 148.304ZM4.20898 176.304C6.41812 176.304 8.20898 174.513 8.20898 172.304C8.20898 170.095 6.41812 168.304 4.20898 168.304C1.99985 168.304 0.208984 170.095 0.208984 172.304C0.208984 174.513 1.99985 176.304 4.20898 176.304ZM32.209 172.304C32.209 174.513 30.4181 176.304 28.209 176.304C25.9998 176.304 24.209 174.513 24.209 172.304C24.209 170.095 25.9998 168.304 28.209 168.304C30.4181 168.304 32.209 170.095 32.209 172.304ZM52.209 176.304C54.4181 176.304 56.209 174.513 56.209 172.304C56.209 170.095 54.4181 168.304 52.209 168.304C49.9998 168.304 48.209 170.095 48.209 172.304C48.209 174.513 49.9998 176.304 52.209 176.304ZM80.209 172.304C80.209 174.513 78.4181 176.304 76.209 176.304C73.9998 176.304 72.209 174.513 72.209 172.304C72.209 170.095 73.9998 168.304 76.209 168.304C78.4181 168.304 80.209 170.095 80.209 172.304ZM100.209 176.304C102.418 176.304 104.209 174.513 104.209 172.304C104.209 170.095 102.418 168.304 100.209 168.304C97.9998 168.304 96.209 170.095 96.209 172.304C96.209 174.513 97.9998 176.304 100.209 176.304ZM128.209 172.304C128.209 174.513 126.418 176.304 124.209 176.304C122 176.304 120.209 174.513 120.209 172.304C120.209 170.095 122 168.304 124.209 168.304C126.418 168.304 128.209 170.095 128.209 172.304ZM148.209 176.304C150.418 176.304 152.209 174.513 152.209 172.304C152.209 170.095 150.418 168.304 148.209 168.304C146 168.304 144.209 170.095 144.209 172.304C144.209 174.513 146 176.304 148.209 176.304ZM176.209 172.304C176.209 174.513 174.418 176.304 172.209 176.304C170 176.304 168.209 174.513 168.209 172.304C168.209 170.095 170 168.304 172.209 168.304C174.418 168.304 176.209 170.095 176.209 172.304Z" fill="white"/>
</svg>
