<svg width="125" height="125" viewBox="0 0 125 125" fill="none" xmlns="http://www.w3.org/2000/svg">
<circle cx="62.0449" cy="62.5442" r="62" fill="white"/>
<path d="M51.6518 34.3934V46.2786H43.1518V34.3934C36.7768 36.4377 32.8668 41.9266 32.8711 48.4036C32.8711 56.6209 39.3481 63.2786 47.5655 63.2786C55.7828 63.2786 62.007 56.6209 62.0027 48.4036C62.007 41.9287 58.0268 36.4356 51.6518 34.3934Z" stroke="#4AADA8" stroke-width="3" stroke-miterlimit="10"/>
<path d="M51.6523 62.6984V93.0286C51.6523 95.3746 49.7483 97.2786 47.4023 97.2786C45.0563 97.2786 43.1608 95.6636 43.1608 93.3176L43.1523 93.0286V62.6071" stroke="#4AADA8" stroke-width="3" stroke-miterlimit="10"/>
<path d="M79.2787 70.0085C79.2787 70.0085 75.5642 83.9973 75.0287 88.7786C74.6355 92.2785 75.0287 97.2807 83.5287 97.2786C92.0287 97.2786 92.4218 92.2785 92.0287 88.7786C91.4932 83.9973 87.7765 70.0063 87.7765 70.0063" stroke="#4AADA8" stroke-width="3" stroke-miterlimit="10"/>
<path d="M94.1523 69.6536H72.9023" stroke="#4AADA8" stroke-width="3" stroke-miterlimit="10"/>
<path d="M83.5273 50.5286V69.6536" stroke="#4AADA8" stroke-width="3" stroke-miterlimit="10"/>
<path d="M89.9045 44.5084L83.5273 53.0084L77.1523 44.5084L77.1545 33.5286H89.9023L89.9045 44.5084Z" stroke="#4AADA8" stroke-width="3" stroke-miterlimit="10"/>
</svg>
