<svg width="82" height="66" viewBox="0 0 82 66" fill="none" xmlns="http://www.w3.org/2000/svg">
<g clip-path="url(#clip0)">
<path d="M11.4385 56.2385V44.0898H13.7478V54.4438H23.5885V56.2385H11.4385ZM28.5915 56.2385C27.9021 56.2385 27.3161 56.1695 26.8336 56.0314C26.351 55.8819 25.9547 55.6805 25.6444 55.4274C25.3457 55.1628 25.1274 54.8522 24.9895 54.4956C24.8517 54.139 24.7827 53.7421 24.7827 53.3049V47.0235C24.7827 46.5863 24.8517 46.1894 24.9895 45.8328C25.1274 45.4761 25.3457 45.1713 25.6444 44.9182C25.9547 44.6536 26.351 44.4522 26.8336 44.3142C27.3161 44.1646 27.9021 44.0898 28.5915 44.0898H36.6053C37.2946 44.0898 37.8806 44.1646 38.3631 44.3142C38.8457 44.4522 39.2363 44.6536 39.535 44.9182C39.8453 45.1713 40.0693 45.4761 40.2072 45.8328C40.3451 46.1894 40.414 46.5863 40.414 47.0235V53.3049C40.414 53.7421 40.3451 54.139 40.2072 54.4956C40.0693 54.8522 39.8453 55.1628 39.535 55.4274C39.2363 55.6805 38.8457 55.8819 38.3631 56.0314C37.8806 56.1695 37.2946 56.2385 36.6053 56.2385H28.5915ZM38.1219 47.0062C38.1219 46.2584 37.6163 45.8845 36.6053 45.8845H28.5915C27.5804 45.8845 27.0749 46.2584 27.0749 47.0062V53.3221C27.0749 54.0699 27.5804 54.4438 28.5915 54.4438H36.6053C37.6163 54.4438 38.1219 54.0699 38.1219 53.3221V47.0062ZM55.8795 56.2385L49.6236 46.454L43.2642 56.2385H40.7136L48.7791 44.0898H50.4508L58.4646 56.2385H55.8795ZM59.5894 56.2385V44.0898H61.8988V54.4438H71.7394V56.2385H59.5894Z" fill="#50ADAA"/>
<path d="M41.0893 15.916H38.4697V18.539H41.0893V15.916Z" fill="#4EAEA8"/>
<path d="M19.6016 19.6895L42.1352 3.31299L63.5772 19.6895L42.072 7.13533L19.6016 19.6895Z" fill="#4EAEA8"/>
<path d="M41.0893 11.6909H38.4697V14.3139H41.0893V11.6909Z" fill="#4EAEA8"/>
<path d="M45.5873 11.6909H42.9678V14.3139H45.5873V11.6909Z" fill="#4EAEA8"/>
<path d="M45.5873 15.916H42.9678V18.539H45.5873V15.916Z" fill="#4EAEA8"/>
<path d="M49.0137 6.74414H52.4662V13.0543L49.0137 10.9116" fill="#4EAEA8"/>
<path d="M6.02544 40.9718C3.2171 41.7431 1.82715 41.3304 1.82715 39.6056V32.7749C1.82715 31.0501 3.2171 29.7325 6.02544 28.9583C9.11042 28.1196 12.2144 27.39 15.3372 26.7695V28.5455C12.2162 29.1622 9.11231 29.8927 6.02544 30.7371C4.70654 31.0987 4.04993 31.5652 4.03571 32.1116V38.9427C4.03571 39.4891 4.69517 39.5688 6.02544 39.2044C7.76688 38.7319 9.51404 38.2927 11.2669 37.8866C12.5971 37.582 13.2566 37.1837 13.2566 36.657V32.6725C14.0098 32.5131 14.7631 32.3567 15.5163 32.2086V36.1931C15.5163 37.901 14.0951 39.0166 11.2527 39.6626C9.51688 40.0592 7.77446 40.4955 6.02544 40.9718Z" fill="white"/>
<path d="M29.1685 36.5479C28.221 34.8404 27.2736 33.1507 26.3261 31.4791C24.2056 31.7198 22.089 32.0132 19.9761 32.3583V37.7205C19.2181 37.8439 18.4601 37.9739 17.7021 38.1105V26.0883C21.0979 25.4736 24.5088 24.9926 27.9349 24.6453C28.5184 24.5717 29.1097 24.5871 29.6888 24.6908C30.1142 24.7667 30.5172 24.9369 30.8682 25.1889C31.1617 25.4088 31.3904 25.7037 31.5305 26.0428C31.6719 26.4143 31.7414 26.8093 31.7353 27.2069V28.0607C31.7537 28.7862 31.5093 29.494 31.0474 30.0531C30.5899 30.6223 29.8195 30.9809 28.7422 31.1915C29.6897 32.8993 30.6372 34.6163 31.5845 36.3431C30.7869 36.4056 29.9815 36.474 29.1685 36.5479ZM29.4527 27.3862C29.4527 26.6462 28.9497 26.3188 27.9406 26.4213C25.2877 26.6907 22.6347 27.0418 19.9818 27.4744V30.5823C22.6347 30.1517 25.2877 29.8006 27.9406 29.5294C28.9497 29.427 29.4527 29.0142 29.4527 28.2742V27.3862Z" fill="white"/>
<path d="M37.3461 36.0389C36.7567 36.0705 36.1659 36.0216 35.5894 35.8936C35.162 35.7979 34.7593 35.6138 34.4071 35.3529C34.1124 35.1248 33.8838 34.8223 33.7448 34.4763C33.6023 34.105 33.5319 33.7098 33.5374 33.3123V24.2045C34.302 24.1561 35.0666 24.1191 35.8313 24.0849V33.2212C35.8313 33.9612 36.3342 34.3083 37.3461 34.2741C39.8589 34.1944 42.3716 34.1849 44.8843 34.2456C45.8962 34.2686 46.3992 33.9212 46.3992 33.1812V24.0337C47.1572 24.0603 47.9218 24.0935 48.693 24.1333V33.241C48.6982 33.6347 48.6543 34.0279 48.5623 34.4107C48.4828 34.7484 48.3104 35.057 48.0648 35.3017C47.7773 35.5681 47.4275 35.7579 47.0475 35.8539C46.4974 35.9906 45.9301 36.0435 45.3646 36.0104C42.6927 35.944 40.02 35.9535 37.3461 36.0389Z" fill="white"/>
<path d="M53.1699 32.0229V36.4627C52.4053 36.3974 51.6435 36.3405 50.8789 36.2864V24.2642C54.1896 24.4918 57.4925 24.8419 60.7876 25.3144C61.3888 25.3896 61.9765 25.5497 62.5328 25.7897C62.9674 25.9786 63.3641 26.2448 63.7042 26.5752C63.9943 26.8653 64.218 27.2149 64.3605 27.5998C64.4992 27.9889 64.5688 28.3993 64.5653 28.8123V30.5883C64.5722 30.9774 64.5027 31.3643 64.3605 31.7266C64.2267 32.0539 63.998 32.3335 63.7042 32.5294C63.35 32.754 62.9496 32.8941 62.5328 32.9392C61.9518 33.0033 61.3644 32.9872 60.7876 32.8909C58.2559 32.5302 55.7168 32.2409 53.1699 32.0229ZM62.2942 28.4252C62.2942 27.6852 61.7912 27.2355 60.7876 27.0904C58.2559 26.7261 55.7168 26.4348 53.1699 26.2166V30.2581C55.7131 30.4781 58.2522 30.7695 60.7876 31.1319C61.7912 31.2771 62.2942 30.9869 62.2942 30.2469V28.4252Z" fill="white"/>
<path d="M69.8209 38.9476C69.2223 38.8305 68.6409 38.6393 68.0897 38.3784C67.6566 38.1725 67.2625 37.8932 66.9244 37.553C66.6349 37.2579 66.4111 36.905 66.2678 36.517C66.1294 36.1261 66.0598 35.7137 66.063 35.2989V29.0799C66.0558 28.6907 66.1253 28.3039 66.2678 27.9416C66.4005 27.6176 66.63 27.3423 66.9244 27.1532C67.2766 26.936 67.6767 26.8089 68.0897 26.7832C68.6708 26.7429 69.2545 26.7919 69.8209 26.9283C72.4508 27.4976 75.0661 28.138 77.6658 28.8496C78.2627 29.006 78.8363 29.2416 79.3714 29.5496C79.798 29.799 80.1817 30.115 80.5083 30.4861C80.7907 30.8105 81.0078 31.1864 81.148 31.5931C81.2827 31.9929 81.3508 32.4122 81.3496 32.8341V39.0503C81.3588 39.4319 81.2901 39.8116 81.148 40.1659C81.0219 40.4713 80.7967 40.725 80.5083 40.8858C80.1567 41.0655 79.7661 41.1547 79.3714 41.1449C78.7926 41.1282 78.2188 41.0325 77.6658 40.8602C75.0641 40.1469 72.4491 39.5093 69.8209 38.9476ZM79.1382 32.151C79.1382 31.411 78.6493 30.8959 77.6658 30.6227C75.0641 29.9016 72.4491 29.2611 69.8209 28.7015C68.8259 28.488 68.3255 28.7613 68.3255 29.5013V35.7629C68.3255 36.5029 68.8259 36.9697 69.8209 37.186C72.4508 37.7551 75.0661 38.3956 77.6658 39.1069C78.6493 39.3916 79.1382 39.1555 79.1382 38.4155V32.151Z" fill="white"/>
</g>
<defs>
<clipPath id="clip0">
<rect width="81" height="65" fill="white" transform="translate(0.5 0.0625)"/>
</clipPath>
</defs>
</svg>
