<svg width="282" height="226" viewBox="0 0 282 226" fill="none" xmlns="http://www.w3.org/2000/svg">
<path d="M38.0825 195.319V153.079H46.1225V189.079H80.3825V195.319H38.0825ZM97.8003 195.319C95.4003 195.319 93.3603 195.079 91.6803 194.599C90.0003 194.079 88.6203 193.379 87.5403 192.499C86.5003 191.579 85.7403 190.499 85.2603 189.259C84.7803 188.019 84.5403 186.639 84.5403 185.119V163.279C84.5403 161.759 84.7803 160.379 85.2603 159.139C85.7403 157.899 86.5003 156.839 87.5403 155.959C88.6203 155.039 90.0003 154.339 91.6803 153.859C93.3603 153.339 95.4003 153.079 97.8003 153.079H125.7C128.1 153.079 130.14 153.339 131.82 153.859C133.5 154.339 134.86 155.039 135.9 155.959C136.98 156.839 137.76 157.899 138.24 159.139C138.72 160.379 138.96 161.759 138.96 163.279V185.119C138.96 186.639 138.72 188.019 138.24 189.259C137.76 190.499 136.98 191.579 135.9 192.499C134.86 193.379 133.5 194.079 131.82 194.599C130.14 195.079 128.1 195.319 125.7 195.319H97.8003ZM130.98 163.219C130.98 160.619 129.22 159.319 125.7 159.319H97.8003C94.2803 159.319 92.5203 160.619 92.5203 163.219V185.179C92.5203 187.779 94.2803 189.079 97.8003 189.079H125.7C129.22 189.079 130.98 187.779 130.98 185.179V163.219ZM192.803 195.319L171.023 161.299L148.883 195.319H140.003L168.083 153.079H173.903L201.803 195.319H192.803ZM205.719 195.319V153.079H213.759V189.079H248.019V195.319H205.719Z" fill="#50ADAA"/>
<path d="M141.311 55.1221H132.191V64.2421H141.311V55.1221Z" fill="#4EAEA8"/>
<path d="M66.501 68.242L144.951 11.302L219.601 68.242L144.731 24.592L66.501 68.242Z" fill="#4EAEA8"/>
<path d="M141.311 40.4319H132.191V49.5519H141.311V40.4319Z" fill="#4EAEA8"/>
<path d="M156.971 40.4319H147.851V49.5519H156.971V40.4319Z" fill="#4EAEA8"/>
<path d="M156.971 55.1221H147.851V64.2421H156.971V55.1221Z" fill="#4EAEA8"/>
<path d="M168.901 23.2319H180.921V45.1719L168.901 37.7219" fill="#4EAEA8"/>
<path d="M19.2378 142.238C9.46066 144.92 4.62158 143.485 4.62158 137.488V113.738C4.62158 107.741 9.46066 103.16 19.2378 100.468C29.9781 97.5519 40.7844 95.0152 51.6567 92.8579V99.0329C40.791 101.177 29.9847 103.717 19.2378 106.653C14.6461 107.91 12.3601 109.532 12.3106 111.432V135.183C12.3106 137.083 14.6065 137.36 19.2378 136.093C25.3006 134.45 31.3833 132.923 37.4858 131.511C42.117 130.452 44.4129 129.067 44.4129 127.236V113.382C47.0353 112.828 49.6577 112.284 52.2801 111.769V125.623C52.2801 131.561 47.3322 135.44 37.4363 137.686C31.3932 139.065 25.327 140.582 19.2378 142.238Z" fill="#1D1D1B"/>
<path d="M99.8092 126.858C96.5105 120.921 93.2119 115.046 89.9133 109.234C82.5309 110.071 75.1618 111.091 67.8059 112.291V130.935C65.167 131.364 62.5281 131.816 59.8892 132.291V90.4908C71.7115 88.3533 83.5865 86.6809 95.5143 85.4736C97.5459 85.2177 99.6045 85.2711 101.62 85.6319C103.101 85.8956 104.504 86.4873 105.726 87.3637C106.748 88.128 107.544 89.1536 108.032 90.3324C108.524 91.6241 108.766 92.9977 108.745 94.3799V97.3486C108.809 99.8711 107.958 102.332 106.35 104.276C104.757 106.255 102.075 107.502 98.3248 108.234C101.623 114.172 104.922 120.142 108.22 126.146C105.443 126.363 102.639 126.601 99.8092 126.858ZM100.798 95.0033C100.798 92.4304 99.0472 91.2923 95.5341 91.6486C86.298 92.5854 77.0618 93.8059 67.8257 95.3101V106.116C77.0618 104.619 86.298 103.398 95.5341 102.455C99.0472 102.099 100.798 100.664 100.798 98.0908V95.0033Z" fill="#1D1D1B"/>
<path d="M128.279 125.087C126.227 125.197 124.17 125.027 122.163 124.582C120.675 124.249 119.273 123.609 118.047 122.702C117.021 121.909 116.225 120.857 115.741 119.654C115.245 118.363 115 116.989 115.019 115.607V83.9397C117.681 83.7715 120.343 83.6428 123.005 83.5241V115.29C123.005 117.863 124.756 119.07 128.279 118.951C137.027 118.674 145.775 118.641 154.523 118.852C158.046 118.932 159.797 117.724 159.797 115.151V83.3459C162.436 83.4383 165.098 83.5538 167.783 83.6923V115.359C167.801 116.728 167.648 118.095 167.328 119.426C167.051 120.6 166.451 121.673 165.596 122.524C164.595 123.45 163.377 124.11 162.054 124.444C160.139 124.919 158.164 125.103 156.195 124.988C146.893 124.757 137.588 124.79 128.279 125.087Z" fill="#1D1D1B"/>
<path d="M183.369 111.124V126.561C180.707 126.334 178.055 126.136 175.393 125.948V84.1475C186.919 84.9391 198.418 86.1563 209.89 87.799C211.983 88.0607 214.029 88.6171 215.966 89.4517C217.479 90.1086 218.86 91.0339 220.044 92.1829C221.054 93.1916 221.833 94.407 222.329 95.7454C222.812 97.098 223.054 98.5249 223.042 99.9611V106.136C223.066 107.489 222.824 108.834 222.329 110.094C221.863 111.232 221.067 112.204 220.044 112.885C218.811 113.666 217.417 114.153 215.966 114.31C213.943 114.533 211.898 114.477 209.89 114.142C201.076 112.888 192.236 111.882 183.369 111.124ZM215.135 98.6152C215.135 96.0423 213.384 94.4788 209.89 93.9741C201.076 92.7074 192.236 91.6947 183.369 90.936V104.988C192.223 105.753 201.063 106.766 209.89 108.026C213.384 108.531 215.135 107.522 215.135 104.949V98.6152Z" fill="#1D1D1B"/>
<path d="M241.34 135.2C239.256 134.793 237.232 134.128 235.313 133.221C233.805 132.505 232.433 131.534 231.256 130.351C230.248 129.325 229.469 128.098 228.97 126.749C228.488 125.39 228.246 123.956 228.257 122.514V100.891C228.232 99.5378 228.474 98.1927 228.97 96.933C229.432 95.8064 230.231 94.8494 231.256 94.1918C232.482 93.4366 233.875 92.9948 235.313 92.9053C237.336 92.7654 239.368 92.9356 241.34 93.41C250.496 95.3892 259.601 97.6158 268.652 100.09C270.73 100.634 272.727 101.453 274.59 102.524C276.075 103.391 277.411 104.49 278.548 105.78C279.531 106.908 280.287 108.215 280.775 109.629C281.244 111.019 281.481 112.477 281.477 113.944V135.557C281.509 136.884 281.27 138.204 280.775 139.436C280.336 140.498 279.552 141.38 278.548 141.939C277.324 142.564 275.964 142.874 274.59 142.84C272.575 142.782 270.577 142.449 268.652 141.85C259.594 139.37 250.49 137.153 241.34 135.2ZM273.778 111.569C273.778 108.996 272.076 107.205 268.652 106.255C259.594 103.748 250.49 101.521 241.34 99.5752C237.876 98.833 236.134 99.783 236.134 102.356V124.127C236.134 126.7 237.876 128.323 241.34 129.075C250.496 131.054 259.601 133.281 268.652 135.754C272.076 136.744 273.778 135.923 273.778 133.35V111.569Z" fill="#1D1D1B"/>
</svg>
