<svg width="29" height="23" viewBox="0 0 29 23" fill="none" xmlns="http://www.w3.org/2000/svg">
<path d="M25.947 22.7832C26.328 22.7832 26.6953 22.679 27.0491 22.4706C27.4028 22.2622 27.8246 21.7412 28.3144 20.9075C27.7158 20.1521 27.1851 19.3705 26.7226 18.563C26.2328 17.7293 25.8246 16.8306 25.4981 15.8667C25.1715 14.8767 24.8994 13.8087 24.6817 12.6624C24.4641 11.5162 24.3008 10.2527 24.1919 8.87201C24.6545 8.87201 25.0899 8.79386 25.4981 8.63755C25.9062 8.48125 26.26 8.27284 26.5593 8.01233C26.8586 7.72577 27.1035 7.42619 27.294 7.11358C27.4572 6.77491 27.5389 6.42323 27.5389 6.05851C27.5389 5.01648 27.3756 4.1568 27.0491 3.47947C26.7226 2.7761 26.3144 2.22903 25.8246 1.83827C25.3348 1.4475 24.7906 1.17397 24.1919 1.01766C23.5661 0.861356 22.9675 0.783203 22.396 0.783203C21.2532 0.783203 20.3144 0.887407 19.5797 1.09581C18.8178 1.30422 18.2192 1.60381 17.7838 1.99457C17.3212 2.38533 17.0083 2.85425 16.845 3.40132C16.6545 3.94839 16.5593 4.54756 16.5593 5.19883C16.5593 6.76189 16.7906 8.37704 17.2532 10.0443C17.7158 11.6855 18.3688 13.2876 19.2124 14.8507C20.0287 16.3877 21.0083 17.8466 22.1511 19.2273C23.294 20.5819 24.5593 21.7672 25.947 22.7832ZM9.70215 22.7832C10.0831 22.7832 10.4504 22.679 10.8042 22.4706C11.1579 22.2622 11.5797 21.7412 12.0695 20.9075C11.4709 20.1521 10.9402 19.3705 10.4777 18.563C9.98786 17.7293 9.5797 16.8306 9.25317 15.8667C8.92664 14.8767 8.65453 13.8087 8.43684 12.6624C8.21915 11.5162 8.05589 10.2527 7.94704 8.87201C8.40963 8.87201 8.845 8.79386 9.25317 8.63755C9.66133 8.48125 10.0151 8.27284 10.3144 8.01233C10.6137 7.72577 10.8586 7.42619 11.0491 7.11358C11.2123 6.77491 11.294 6.42323 11.294 6.05851C11.294 5.01648 11.1307 4.1568 10.8042 3.47947C10.4777 2.7761 10.0695 2.22903 9.5797 1.83827C9.0899 1.4475 8.54568 1.17397 7.94704 1.01766C7.32119 0.861356 6.72256 0.783203 6.15112 0.783203C5.00827 0.783203 4.06949 0.887407 3.3348 1.09581C2.57289 1.30422 1.97425 1.60381 1.53888 1.99457C1.07629 2.38533 0.763371 2.85425 0.600105 3.40132C0.40963 3.94839 0.314392 4.54756 0.314392 5.19883C0.314392 6.76189 0.545683 8.37704 1.00827 10.0443C1.47085 11.6855 2.12391 13.2876 2.96745 14.8507C3.78378 16.3877 4.76337 17.8466 5.90623 19.2273C7.04908 20.5819 8.31439 21.7672 9.70215 22.7832Z" fill="#59D1CB"/>
</svg>
