<svg width="125" height="125" viewBox="0 0 125 125" fill="none" xmlns="http://www.w3.org/2000/svg">
<circle cx="62.6106" cy="62.8918" r="62" fill="#4AADA8" fill-opacity="0.4"/>
<g filter="url(#filter0_d)">
<path d="M58.8634 65.665H36.3789V62.0085H28.884V69.3214C28.884 70.2912 29.2788 71.2212 29.9816 71.9069C30.6844 72.5926 31.6376 72.9779 32.6315 72.9779H55.116V80.2907H51.3686V96.2294C51.3686 99.5431 54.0549 102.229 57.3686 102.229H60.3582C63.6719 102.229 66.3582 99.5431 66.3582 96.2294V80.2907H62.6108V69.3214C62.6108 68.3517 62.216 67.4217 61.5132 66.7359C60.8104 66.0502 59.8573 65.665 58.8634 65.665Z" fill="#BFBEBE" stroke="#65818C" stroke-width="2" stroke-linecap="round" stroke-linejoin="round"/>
<path d="M92.5902 31.7693H32.6315C31.6376 31.7693 30.6844 32.1545 29.9816 32.8402C29.2789 33.526 28.884 34.456 28.884 35.4257V53.7079C28.884 54.6777 29.2789 55.6077 29.9816 56.2934C30.6844 56.9791 31.6376 57.3644 32.6315 57.3644H92.5902C93.584 57.3644 94.5372 56.9791 95.24 56.2934C95.9428 55.6077 96.3376 54.6777 96.3376 53.7079V35.4257C96.3376 34.456 95.9428 33.526 95.24 32.8402C94.5372 32.1545 93.584 31.7693 92.5902 31.7693Z" fill="#F4AA41"/>
<path d="M92.5902 31.7693H32.6315C31.6376 31.7693 30.6844 32.1545 29.9816 32.8402C29.2789 33.526 28.884 34.456 28.884 35.4257V53.7079C28.884 54.6777 29.2789 55.6077 29.9816 56.2934C30.6844 56.9791 31.6376 57.3644 32.6315 57.3644H92.5902C93.584 57.3644 94.5372 56.9791 95.24 56.2934C95.9428 55.6077 96.3376 54.6777 96.3376 53.7079V35.4257C96.3376 34.456 95.9428 33.526 95.24 32.8402C94.5372 32.1545 93.584 31.7693 92.5902 31.7693Z" fill="url(#paint0_linear)"/>
<path d="M92.5902 31.7693H32.6315C31.6376 31.7693 30.6844 32.1545 29.9816 32.8402C29.2789 33.526 28.884 34.456 28.884 35.4257V53.7079C28.884 54.6777 29.2789 55.6077 29.9816 56.2934C30.6844 56.9791 31.6376 57.3644 32.6315 57.3644H92.5902C93.584 57.3644 94.5372 56.9791 95.24 56.2934C95.9428 55.6077 96.3376 54.6777 96.3376 53.7079V35.4257C96.3376 34.456 95.9428 33.526 95.24 32.8402C94.5372 32.1545 93.584 31.7693 92.5902 31.7693Z" stroke="#65818C" stroke-width="2" stroke-linecap="round" stroke-linejoin="round"/>
<path d="M85.5893 64.6694L81.1153 69.1413C80.2307 70.0257 79.6283 71.1525 79.3844 72.379C79.1404 73.6056 79.2658 74.877 79.7447 76.0323C80.2235 77.1877 81.0344 78.1751 82.0747 78.8699C83.1151 79.5646 84.3381 79.9355 85.5893 79.9355C86.8404 79.9355 88.0635 79.5646 89.1038 78.8699C90.1442 78.1751 90.955 77.1877 91.4339 76.0323C91.9128 74.877 92.0381 73.6056 91.7942 72.379C91.5502 71.1525 90.9478 70.0257 90.0633 69.1413L85.5893 64.6694Z" fill="#7AD4D0" stroke="#65818C" stroke-width="2" stroke-linecap="round" stroke-linejoin="round"/>
</g>
<defs>
<filter id="filter0_d" x="23.884" y="30.7693" width="77.4535" height="80.4601" filterUnits="userSpaceOnUse" color-interpolation-filters="sRGB">
<feFlood flood-opacity="0" result="BackgroundImageFix"/>
<feColorMatrix in="SourceAlpha" type="matrix" values="0 0 0 0 0 0 0 0 0 0 0 0 0 0 0 0 0 0 127 0"/>
<feOffset dy="4"/>
<feGaussianBlur stdDeviation="2"/>
<feColorMatrix type="matrix" values="0 0 0 0 0 0 0 0 0 0 0 0 0 0 0 0 0 0 0.25 0"/>
<feBlend mode="normal" in2="BackgroundImageFix" result="effect1_dropShadow"/>
<feBlend mode="normal" in="SourceGraphic" in2="effect1_dropShadow" result="shape"/>
</filter>
<linearGradient id="paint0_linear" x1="62.6108" y1="34.918" x2="62.6108" y2="51.0699" gradientUnits="userSpaceOnUse">
<stop stop-color="#79CFCB"/>
<stop offset="1" stop-color="white"/>
</linearGradient>
</defs>
</svg>
