<svg width="21" height="20" viewBox="0 0 21 20" fill="none" xmlns="http://www.w3.org/2000/svg">
<path d="M9.79852 1.53887C10.0979 0.617557 11.4013 0.617558 11.7006 1.53887L13.3665 6.6658C13.5003 7.07782 13.8843 7.35678 14.3175 7.35678H19.7083C20.677 7.35678 21.0798 8.59639 20.2961 9.16579L15.9349 12.3344C15.5844 12.5891 15.4377 13.0404 15.5716 13.4524L17.2374 18.5794C17.5368 19.5007 16.4823 20.2668 15.6986 19.6974L11.3374 16.5288C10.9869 16.2741 10.5123 16.2741 10.1618 16.5288L5.80057 19.6974C5.01685 20.2668 3.96237 19.5007 4.26172 18.5794L5.92756 13.4524C6.06144 13.0404 5.91478 12.5891 5.56429 12.3344L1.20307 9.16579C0.419354 8.59639 0.82213 7.35678 1.79085 7.35678H7.18163C7.61485 7.35678 7.99881 7.07782 8.13268 6.66579L9.79852 1.53887Z" fill="#F5A623"/>
</svg>
