<svg width="125" height="125" viewBox="0 0 125 125" fill="none" xmlns="http://www.w3.org/2000/svg">
<circle cx="62.6145" cy="62.8918" r="62" fill="#B7DEDC"/>
<path d="M101.213 71.8366L83.4079 56.5741L64.3285 67.3851V45.1272L46.5222 30.5007L24.9003 45.1272L26.6101 99.3051L96.1253 101.09L101.213 97.91V71.8366Z" fill="white"/>
<g filter="url(#filter0_d)">
<path d="M86.5437 98.9884V80.02H75.1741V98.9884H86.5437ZM48.645 98.9884V80.02H37.2738V98.9884" fill="#D8DFE3"/>
<path d="M48.645 98.9884V80.02H37.2738V98.9884M86.5437 98.9884V80.02H75.1741V98.9884H86.5437Z" stroke="#64818D" stroke-width="2" stroke-linecap="round" stroke-linejoin="round"/>
<path d="M24.6379 66.5835V46.8267V66.5835Z" fill="#F2F2F2"/>
<path d="M100.439 68.1706V95.8286C100.439 97.5742 99.3063 98.9887 97.912 98.9887H27.1645C25.7702 98.9887 24.6379 97.5742 24.6379 95.8286V83.9709V66.5835V46.8267" stroke="#64818D" stroke-width="2" stroke-linecap="round"/>
<path d="M48.6412 65.7949V53.1487H37.2699V65.7949H48.6412Z" fill="#D8DFE3" stroke="#64818D" stroke-width="2" stroke-linecap="round" stroke-linejoin="round"/>
<path d="M89.2735 53.5941L83.0108 48.9292C82.5554 48.5874 82.0284 48.4061 81.4905 48.4061C80.9526 48.4061 80.4256 48.5874 79.9702 48.9292L56.8329 66.1681C55.6334 67.0609 55.2403 69.0011 55.9543 70.5019L56.3894 71.4007C57.1067 72.8875 58.6505 73.371 59.8433 72.4802L79.5519 57.7974C80.1328 57.361 80.8051 57.1294 81.4914 57.1294C82.1776 57.1294 82.8499 57.361 83.4308 57.7974L103.139 72.4822C104.332 73.373 105.874 72.8895 106.593 71.4028L107.018 70.5219C107.741 69.0272 107.358 67.085 106.163 66.1801L99.8804 61.4992L89.2735 53.5941ZM96.02 58.6823C94.5081 57.5587 94.372 57.4383 92.8618 56.3127L96.02 58.6823ZM68.9148 47.2318C69.3228 46.3878 69.4404 45.3874 69.2426 44.4418C69.0449 43.4962 68.5472 42.6793 67.8547 42.1637L45.1105 25.2177C44.6551 24.8759 44.1281 24.6946 43.5902 24.6946C43.0523 24.6946 42.5253 24.8759 42.0699 25.2177L19.3274 42.1637C18.6349 42.6793 18.1372 43.4962 17.9395 44.4418C17.7417 45.3874 17.8592 46.3878 18.2673 47.2318C18.4646 47.6394 18.7284 47.9955 19.0432 48.2788C19.358 48.5622 19.7172 48.7671 20.0997 48.8812C20.4821 48.9954 20.8798 49.0166 21.2692 48.9435C21.6586 48.8704 22.0317 48.7045 22.3663 48.4557L40.9259 34.6277C41.7259 34.0318 42.6499 33.7159 43.5927 33.7159C44.5356 33.7159 45.4595 34.0318 46.2596 34.6277L64.8158 48.4517C65.1505 48.7008 65.5237 48.8669 65.9133 48.9402C66.3029 49.0135 66.7008 48.9924 67.0834 48.8782C67.466 48.764 67.8255 48.5591 68.1404 48.2755C68.4553 47.992 68.7192 47.6357 68.9164 47.2278L68.9148 47.2318Z" fill="#4AADA8" stroke="#64818D" stroke-width="2" stroke-linecap="round"/>
<path d="M61.9072 71.3477V98.9602" stroke="#64818D" stroke-width="2" stroke-linecap="round"/>
</g>
<defs>
<filter id="filter0_d" x="12.8457" y="23.6946" width="99.5362" height="84.2941" filterUnits="userSpaceOnUse" color-interpolation-filters="sRGB">
<feFlood flood-opacity="0" result="BackgroundImageFix"/>
<feColorMatrix in="SourceAlpha" type="matrix" values="0 0 0 0 0 0 0 0 0 0 0 0 0 0 0 0 0 0 127 0"/>
<feOffset dy="4"/>
<feGaussianBlur stdDeviation="2"/>
<feColorMatrix type="matrix" values="0 0 0 0 0 0 0 0 0 0 0 0 0 0 0 0 0 0 0.25 0"/>
<feBlend mode="normal" in2="BackgroundImageFix" result="effect1_dropShadow"/>
<feBlend mode="normal" in="SourceGraphic" in2="effect1_dropShadow" result="shape"/>
</filter>
</defs>
</svg>
