<svg width="101" height="101" viewBox="0 0 101 101" fill="none" xmlns="http://www.w3.org/2000/svg">
<circle cx="50.8843" cy="50.459" r="50" fill="#B7DEDC"/>
<g filter="url(#filter0_d)">
<rect width="36.1246" height="3.92236" transform="matrix(-0.686544 -0.727088 -0.727088 0.686544 73.1167 67.1362)" fill="white" stroke="#64818D" stroke-width="2"/>
<path d="M29.822 18.827C27.4062 17.7183 24.8517 20.0741 25.7616 22.5715L37.3375 54.344C38.0689 56.3515 40.6078 56.968 42.1784 55.5195L61.3357 37.8524C62.9064 36.404 62.497 33.8236 60.5552 32.9324L29.822 18.827Z" fill="#C4C4C4"/>
<path d="M29.822 18.827C27.4062 17.7183 24.8517 20.0741 25.7616 22.5715L37.3375 54.344C38.0689 56.3515 40.6078 56.968 42.1784 55.5195L61.3357 37.8524C62.9064 36.404 62.497 33.8236 60.5552 32.9324L29.822 18.827Z" fill="url(#paint0_linear)"/>
<path d="M29.822 18.827C27.4062 17.7183 24.8517 20.0741 25.7616 22.5715L37.3375 54.344C38.0689 56.3515 40.6078 56.968 42.1784 55.5195L61.3357 37.8524C62.9064 36.404 62.497 33.8236 60.5552 32.9324L29.822 18.827Z" stroke="#64818D" stroke-width="2"/>
<path d="M78.062 75.3903C80.3334 73.2455 80.4361 69.6655 78.2913 67.394L71.3993 60.095C69.2546 57.8236 65.6745 57.7209 63.4031 59.8657C61.1316 62.0105 61.0289 65.5905 63.1737 67.862L70.0657 75.161C72.2105 77.4324 75.7905 77.5351 78.062 75.3903Z" fill="#4AADA8" stroke="#64818D" stroke-width="2"/>
</g>
<defs>
<filter id="filter0_d" x="20.5708" y="17.5425" width="64.2642" height="68.3914" filterUnits="userSpaceOnUse" color-interpolation-filters="sRGB">
<feFlood flood-opacity="0" result="BackgroundImageFix"/>
<feColorMatrix in="SourceAlpha" type="matrix" values="0 0 0 0 0 0 0 0 0 0 0 0 0 0 0 0 0 0 127 0"/>
<feOffset dy="4"/>
<feGaussianBlur stdDeviation="2"/>
<feColorMatrix type="matrix" values="0 0 0 0 0 0 0 0 0 0 0 0 0 0 0 0 0 0 0.25 0"/>
<feBlend mode="normal" in2="BackgroundImageFix" result="effect1_dropShadow"/>
<feBlend mode="normal" in="SourceGraphic" in2="effect1_dropShadow" result="shape"/>
</filter>
<linearGradient id="paint0_linear" x1="43.9367" y1="18.5454" x2="43.9367" y2="56.3134" gradientUnits="userSpaceOnUse">
<stop stop-color="white"/>
<stop offset="1" stop-color="white" stop-opacity="0"/>
</linearGradient>
</defs>
</svg>
