<svg width="102" height="102" viewBox="0 0 102 102" fill="none" xmlns="http://www.w3.org/2000/svg">
<circle cx="51.0929" cy="50.6676" r="50.4029" fill="#B7DEDC"/>
<g filter="url(#filter0_d)">
<path d="M59.2549 26.8867L75.8354 26.8867L75.8354 45.546H59.2549L59.2549 26.8867Z" fill="#4AADA8" stroke="#64818D" stroke-width="2"/>
<path d="M62.3513 33.428C62.4503 33.4292 62.5485 33.4094 62.6396 33.37C62.7306 33.3305 62.8125 33.2721 62.8799 33.1987L65.9009 30.142C65.9703 30.0718 66.0254 29.9884 66.063 29.8966C66.1005 29.8048 66.1199 29.7064 66.1199 29.6071C66.1199 29.5077 66.1005 29.4094 66.063 29.3176C66.0254 29.2258 65.9703 29.1424 65.9009 29.0722C65.8315 29.0019 65.7491 28.9462 65.6583 28.9082C65.5676 28.8702 65.4704 28.8506 65.3722 28.8506C65.2741 28.8506 65.1768 28.8702 65.0861 28.9082C64.9954 28.9462 64.913 29.0019 64.8436 29.0722L61.8226 32.1289C61.7504 32.1975 61.6928 32.2803 61.6534 32.3724C61.6141 32.4644 61.5938 32.5635 61.5938 32.6638C61.5938 32.7641 61.6141 32.8632 61.6534 32.9553C61.6928 33.0473 61.7504 33.1301 61.8226 33.1987C61.8901 33.2721 61.9719 33.3305 62.063 33.37C62.154 33.4094 62.2522 33.4292 62.3513 33.428Z" fill="white"/>
<path d="M62.5751 37.0147C62.6429 37.0878 62.7248 37.1461 62.8157 37.1859C62.9066 37.2257 63.0046 37.2463 63.1037 37.2463C63.2028 37.2463 63.3008 37.2257 63.3918 37.1859C63.4827 37.1461 63.5646 37.0878 63.6324 37.0147L69.6743 30.9013C69.8145 30.7594 69.8933 30.567 69.8933 30.3664C69.8933 30.1657 69.8145 29.9733 69.6743 29.8314C69.5341 29.6896 69.3439 29.6099 69.1456 29.6099C68.9473 29.6099 68.7572 29.6896 68.617 29.8314L62.5751 35.9449C62.5028 36.0135 62.4452 36.0963 62.4059 36.1883C62.3665 36.2803 62.3462 36.3795 62.3462 36.4798C62.3462 36.58 62.3665 36.6792 62.4059 36.7712C62.4452 36.8632 62.5028 36.9461 62.5751 37.0147Z" fill="white"/>
<path d="M50.425 41.566C50.3982 41.6614 50.3919 41.7614 50.4064 41.8595C50.421 41.9577 50.4561 42.0519 50.5096 42.136L52.6803 45.8452C52.7302 45.9304 52.7965 46.0052 52.8754 46.0653C52.9543 46.1253 53.0443 46.1694 53.1403 46.1952C53.2363 46.2209 53.3363 46.2276 53.4347 46.2151C53.5331 46.2026 53.6279 46.171 53.7137 46.1221C53.7995 46.0732 53.8747 46.008 53.9349 45.9302C53.9951 45.8525 54.0391 45.7636 54.0645 45.6688C54.0899 45.5739 54.0962 45.475 54.083 45.3775C54.0697 45.2801 54.0372 45.186 53.9873 45.1008L51.8167 41.3916C51.7691 41.3041 51.704 41.227 51.6253 41.1652C51.5466 41.1033 51.456 41.0581 51.3592 41.0321C51.2624 41.0062 51.1613 41.0001 51.0622 41.0143C50.9632 41.0285 50.8682 41.0627 50.7833 41.1147C50.6949 41.1609 50.6174 41.2249 50.5557 41.3026C50.494 41.3803 50.4494 41.4701 50.425 41.566Z" fill="white"/>
<path d="M46.03 47.1227C46.0032 47.218 45.9968 47.318 46.0114 47.4162C46.026 47.5144 46.0611 47.6085 46.1146 47.6927L48.2853 51.4018C48.3352 51.4871 48.4015 51.5618 48.4804 51.6219C48.5593 51.6819 48.6493 51.7261 48.7453 51.7518C48.8412 51.7775 48.9413 51.7843 49.0397 51.7718C49.138 51.7592 49.2328 51.7276 49.3187 51.6787C49.4045 51.6298 49.4796 51.5647 49.5398 51.4869C49.6 51.4091 49.6441 51.3203 49.6695 51.2254C49.6949 51.1306 49.7012 51.0316 49.6879 50.9342C49.6747 50.8367 49.6422 50.7427 49.5923 50.6574L47.4216 46.9483C47.3741 46.8607 47.3089 46.7837 47.2303 46.7218C47.1516 46.66 47.061 46.6147 46.9642 46.5888C46.8673 46.5628 46.7663 46.5567 46.6672 46.571C46.5682 46.5852 46.4732 46.6193 46.3882 46.6714C46.2999 46.7175 46.2223 46.7815 46.1606 46.8592C46.0989 46.9369 46.0544 47.0267 46.03 47.1227Z" fill="white"/>
<path d="M43.2331 37.9777C43.2063 38.073 43.2 38.173 43.2145 38.2712C43.2291 38.3693 43.2642 38.4635 43.3177 38.5477L45.4884 42.2568C45.5383 42.342 45.6046 42.4168 45.6835 42.4769C45.7624 42.5369 45.8525 42.5811 45.9484 42.6068C46.0444 42.6325 46.1444 42.6393 46.2428 42.6267C46.3412 42.6142 46.436 42.5826 46.5218 42.5337C46.6076 42.4848 46.6828 42.4196 46.743 42.3419C46.8032 42.2641 46.8472 42.1752 46.8726 42.0804C46.8981 41.9856 46.9043 41.8866 46.8911 41.7891C46.8778 41.6917 46.8453 41.5976 46.7954 41.5124L44.6248 37.8032C44.5772 37.7157 44.5121 37.6386 44.4334 37.5768C44.3547 37.515 44.2641 37.4697 44.1673 37.4437C44.0705 37.4178 43.9694 37.4117 43.8703 37.4259C43.7713 37.4401 43.6763 37.4743 43.5914 37.5263C43.503 37.5725 43.4255 37.6365 43.3638 37.7142C43.3021 37.7919 43.2576 37.8817 43.2331 37.9777Z" fill="white"/>
<path d="M34.6138 33.4771L33.9375 29.231L36.2524 27.4419H42.1517L45.2106 30.3518L37.3449 37.8961L34.6138 33.4771Z" fill="#E0E0E0" stroke="#64818D"/>
<path d="M28.3726 65.9768V56.7865C44.0397 56.3688 75.6705 55.7839 76.8561 56.7865C78.3381 58.0398 75.5858 65.9768 75.3741 68.9008C75.2047 71.2401 69.7988 75.1669 67.1171 76.8379C58.2249 76.9075 40.2289 77.005 39.382 76.8379C38.3234 76.629 33.0305 73.2871 31.5484 72.4516C30.3628 71.7832 28.9372 67.8566 28.3726 65.9768Z" fill="white" stroke="white"/>
<path d="M25.5653 55.0313H26.7853V34.3465C26.3949 28.3817 29.2253 24.4649 32.1533 24.2345C32.8671 24.2234 33.575 24.3705 34.2309 24.666C34.8868 24.9616 35.4759 25.399 35.9597 25.9497C36.7418 25.6594 37.5717 25.5375 38.3997 25.5913C39.8643 25.6935 41.2933 26.1097 42.5985 26.8142C43.9037 27.5187 45.0573 28.4965 45.9881 29.6873C46.1973 29.924 46.3136 30.2348 46.3136 30.5577C46.3136 30.8805 46.1973 31.1914 45.9881 31.4281L38.5217 39.2873C38.4053 39.4051 38.2677 39.4975 38.1168 39.5591C37.966 39.6206 37.8051 39.65 37.6433 39.6457C37.3564 39.6449 37.0792 39.5359 36.8625 39.3385C35.7164 38.3669 34.7721 37.1591 34.0881 35.7898C33.404 34.4205 32.9947 32.9186 32.8853 31.3769C32.7955 29.9953 33.157 28.6229 33.9101 27.4857C33.4667 27.1089 32.9187 26.8933 32.3485 26.8713C30.8357 26.8713 28.9325 29.8409 29.2253 34.3209V55.0313H79.2453C79.5689 55.0313 79.8792 55.1661 80.108 55.4062C80.3368 55.6462 80.4653 55.9718 80.4653 56.3113C80.4653 56.6507 80.3368 56.9763 80.108 57.2164C79.8792 57.4564 79.5689 57.5913 79.2453 57.5913H78.0253V62.7113C78.0334 66.3473 76.8117 69.8684 74.5778 72.6481C72.3438 75.4279 69.2424 77.2861 65.8253 77.8921C65.8322 77.9516 65.8322 78.0117 65.8253 78.0713V81.9113C65.8253 82.2507 65.6968 82.5763 65.468 82.8164C65.2392 83.0564 64.9289 83.1913 64.6053 83.1913C64.2818 83.1913 63.9715 83.0564 63.7427 82.8164C63.5139 82.5763 63.3853 82.2507 63.3853 81.9113V78.0713H41.4253V81.9113C41.4253 82.2507 41.2968 82.5763 41.068 82.8164C40.8392 83.0564 40.5289 83.1913 40.2053 83.1913C39.8818 83.1913 39.5715 83.0564 39.3427 82.8164C39.1139 82.5763 38.9853 82.2507 38.9853 81.9113V78.0713C38.9739 77.9949 38.9739 77.9172 38.9853 77.8409C35.5765 77.2363 32.4816 75.3856 30.2486 72.6165C28.0157 69.8473 26.7888 66.3385 26.7853 62.7113V57.5913H25.5653C25.2418 57.5913 24.9314 57.4564 24.7027 57.2164C24.4739 56.9763 24.3453 56.6507 24.3453 56.3113C24.3453 55.9718 24.4739 55.6462 24.7027 55.4062C24.9314 55.1661 25.2418 55.0313 25.5653 55.0313ZM37.5945 36.5737L43.3773 30.5065C42.015 29.1151 40.2238 28.2799 38.3265 28.1513C37.5778 28.0883 36.8286 28.2669 36.1793 28.6633L35.9841 28.8169C35.4584 29.5493 35.2224 30.4663 35.3253 31.3769C35.4872 33.3321 36.2889 35.1682 37.5945 36.5737ZM29.2253 60.1513H64.6053C64.9289 60.1513 65.2392 60.2861 65.468 60.5262C65.6968 60.7662 65.8253 61.0918 65.8253 61.4313C65.8253 61.7707 65.6968 62.0963 65.468 62.3364C65.2392 62.5764 64.9289 62.7113 64.6053 62.7113H29.2253C29.2253 66.106 30.5107 69.3618 32.7986 71.7622C35.0866 74.1627 38.1897 75.5113 41.4253 75.5113H63.3853C66.621 75.5113 69.7241 74.1627 72.012 71.7622C74.3 69.3618 75.5853 66.106 75.5853 62.7113V57.5913H29.2253V60.1513Z" fill="#64818D"/>
</g>
<defs>
<filter id="filter0_d" x="17.9053" y="21.7515" width="69" height="72" filterUnits="userSpaceOnUse" color-interpolation-filters="sRGB">
<feFlood flood-opacity="0" result="BackgroundImageFix"/>
<feColorMatrix in="SourceAlpha" type="matrix" values="0 0 0 0 0 0 0 0 0 0 0 0 0 0 0 0 0 0 127 0"/>
<feOffset dy="4"/>
<feGaussianBlur stdDeviation="2"/>
<feColorMatrix type="matrix" values="0 0 0 0 0 0 0 0 0 0 0 0 0 0 0 0 0 0 0.25 0"/>
<feBlend mode="normal" in2="BackgroundImageFix" result="effect1_dropShadow"/>
<feBlend mode="normal" in="SourceGraphic" in2="effect1_dropShadow" result="shape"/>
</filter>
</defs>
</svg>
