<svg width="101" height="101" viewBox="0 0 101 101" fill="none" xmlns="http://www.w3.org/2000/svg">
<circle cx="50.4956" cy="50.459" r="50" fill="#B7DEDC"/>
<g filter="url(#filter0_d)">
<path d="M72.6649 57.4685L69.5561 52.2897L71.6286 51.2539L67.069 46.6965L68.5198 45.0393L63.8565 42.4498L65.4109 39.8604L59.7114 38.6175L60.1259 36.1316L54.0118 36.5459V33.6458L48.7268 35.6137L47.7941 33.2314L43.0272 36.6495L41.5764 34.6815L37.9494 38.9282L35.9805 36.9602L33.8043 42.2427L31.2136 40.8962L30.4882 47.0072L27.5866 46.3858L28.5193 52.2897H26.0322L27.8975 57.9864L25.6177 59.0222L29.2447 63.0617L27.0685 64.719L31.8354 68.2406L30.1773 70.9336L35.9805 72.4873L35.5475 75.2838L40.5401 75.5946V78.184L46.3433 76.5268L46.7578 79.2198L51.5247 76.8375L52.9755 79.2198L56.9134 75.2838L58.7787 77.459L61.7839 72.4873L64.3746 74.0409L65.7218 68.7585L68.5198 69.8978V63.2689L70.5923 63.6832L69.6597 57.9864L72.6649 57.4685ZM48.8304 63.6832C44.7889 63.6832 41.5764 60.4723 41.5764 56.4328C41.5764 52.3933 44.7889 49.1824 48.8304 49.1824C52.8719 49.1824 56.0844 52.3933 56.0844 56.4328C56.0844 60.4723 52.8719 63.6832 48.8304 63.6832Z" fill="#D8DFE3"/>
<path d="M49.8663 49.1821C45.8248 49.1821 42.6123 52.393 42.6123 56.4325C42.6123 60.4721 45.8248 63.683 49.8663 63.683C53.9078 63.683 57.1203 60.4721 57.1203 56.4325C57.1203 52.393 53.9078 49.1821 49.8663 49.1821ZM49.8663 59.5399C48.1046 59.5399 46.7574 58.1934 46.7574 56.4325C46.7574 54.6717 48.1046 53.3252 49.8663 53.3252C51.628 53.3252 52.9751 54.6717 52.9751 56.4325C52.9751 58.1934 51.628 59.5399 49.8663 59.5399Z" fill="#D8DFE3"/>
<path d="M49.8669 48.1466C45.3072 48.1466 41.5766 51.8754 41.5766 56.4328C41.5766 60.9902 45.3072 64.719 49.8669 64.719C54.4265 64.719 58.1571 60.9902 58.1571 56.4328C58.1571 51.8754 54.4265 48.1466 49.8669 48.1466ZM49.8669 62.6474C46.4471 62.6474 43.6492 59.8508 43.6492 56.4328C43.6492 53.0147 46.4471 50.2181 49.8669 50.2181C53.2866 50.2181 56.0846 53.0147 56.0846 56.4328C56.0846 59.8508 53.2866 62.6474 49.8669 62.6474ZM49.8669 52.2897C47.5871 52.2897 45.7217 54.1541 45.7217 56.4328C45.7217 58.7115 47.5871 60.5759 49.8669 60.5759C52.1467 60.5759 54.012 58.7115 54.012 56.4328C54.012 54.1541 52.1467 52.2897 49.8669 52.2897ZM49.8669 58.5043C48.727 58.5043 47.7943 57.5721 47.7943 56.4328C47.7943 55.2934 48.727 54.3612 49.8669 54.3612C51.0068 54.3612 51.9394 55.2934 51.9394 56.4328C51.9394 57.5721 51.0068 58.5043 49.8669 58.5043ZM49.8669 44.0035C49.2451 44.0035 48.8306 44.4178 48.8306 45.0393C48.8306 45.6607 49.2451 46.075 49.8669 46.075C55.5664 46.075 60.2297 50.736 60.2297 56.4328C60.2297 57.0542 60.6442 57.4686 61.266 57.4686C61.8878 57.4686 62.3023 57.0542 62.3023 56.4328C62.3023 49.5967 56.7063 44.0035 49.8669 44.0035ZM74.7377 58.09L71.4216 52.8076L74.2195 51.3575L69.5562 47.0072L71.8361 44.8321L66.2401 42.0355L67.8982 39.3425L61.7841 38.0996L62.6132 35.0958L56.0846 35.6137V32.61L50.4886 34.578L49.6596 31.5742L44.5818 35.1994L42.9238 32.5064L38.9859 37.3745L36.7061 35.1994L34.3226 41.1033L31.5247 39.6533L30.6956 45.8679L27.5868 45.2464L28.5195 51.4611L25.4106 51.6682L28.0013 57.365L24.9961 58.4008L29.0376 63.2689L26.4469 65.1333L31.6283 68.6549L29.6594 71.1408L35.5662 73.2123L34.3226 76.0089L40.5403 76.4232L40.1258 79.5305L46.2399 78.184L46.6544 81.2913L52.1467 78.3912L53.3902 81.2913L57.9499 76.9411L59.9188 79.427L63.1313 74.0409L65.722 75.9053L67.3801 69.7943L70.5925 71.2443V64.4082L73.3905 65.0297L71.6288 58.7115L74.7377 58.09ZM70.7998 62.4403L68.52 62.026V68.137L66.0329 67.1012L64.5821 72.4873L62.6132 71.0372L59.7116 75.9053L58.1571 74.0409L54.1156 77.8733L53.183 75.5946L48.2088 78.184L47.7943 75.8017L42.302 77.0447L42.6129 74.5588L37.017 74.2481L37.9496 71.9694L32.6646 70.105L34.219 68.2406L29.5557 65.0297L31.5247 63.5796L28.1049 59.3329L30.3848 58.5043L28.1049 53.3255L30.592 53.1183L29.763 47.5251L32.1464 48.043L32.8718 42.4498L35.048 43.5892L37.2242 38.4103L38.9859 40.0676L42.5093 35.7173L43.7528 37.7889L48.3125 34.4744L48.9342 36.8567L54.2193 34.8887V37.3745L59.8152 36.9602L59.1934 39.3425L64.6857 40.4819L63.4422 42.5534L68.4163 45.0393L66.6547 46.6965L70.7998 50.5289L68.6236 51.6682L71.6288 56.4328L69.2454 56.9507L70.7998 62.4403Z" fill="#64818D"/>
<path d="M77.8465 65.7544H21.8872V69.8975H77.8465V65.7544Z" fill="#4AADA8"/>
<path d="M81.9914 64.7183C81.3696 64.7183 80.9551 65.1326 80.9551 65.754V68.8614H78.8825C78.8825 66.6862 78.8825 67.9292 78.8825 66.7898C78.8825 65.6505 77.9499 64.7183 76.81 64.7183H22.9233C21.7834 64.7183 20.8507 65.6505 20.8507 66.7898V68.8614H18.7781V65.754C18.7781 65.1326 18.3636 64.7183 17.7418 64.7183C17.1201 64.7183 16.7056 65.1326 16.7056 65.754V69.8971C16.7056 70.5186 17.1201 70.9329 17.7418 70.9329H81.9914C82.6131 70.9329 83.0276 70.5186 83.0276 69.8971V65.754C83.0276 65.1326 82.6131 64.7183 81.9914 64.7183ZM76.81 68.8614H22.9233V66.7898H76.81V68.8614Z" fill="#64818D"/>
<path d="M23.9595 30.5376V47.11L40.54 30.5376H23.9595Z" fill="#4AADA8"/>
<path d="M49.8667 24.3228V28.4658C65.8255 28.4658 77.8463 40.7915 77.8463 56.4317H81.9915C81.9915 38.72 67.5871 24.3228 49.8667 24.3228Z" fill="#D8DFE3"/>
<path d="M49.8668 28.4668C34.4262 28.4668 21.8872 40.9997 21.8872 56.4327H33.2863C33.2863 47.3179 40.7475 39.8603 49.8668 39.8603C58.9861 39.8603 66.4474 47.3179 66.4474 56.4327H77.8465C77.8465 40.9997 65.3074 28.4668 49.8668 28.4668Z" fill="white"/>
<path d="M49.867 23.2876C49.2452 23.2876 48.8307 23.7019 48.8307 24.3234V27.4307C45.411 27.5343 42.0949 28.2593 39.0896 29.5022H23.9599C23.3382 29.5022 22.9236 29.9165 22.9236 30.538V45.0388C22.9236 45.1424 22.9236 45.3496 23.0273 45.4531C21.5765 48.8712 20.8511 52.4964 20.8511 56.4323C20.8511 57.0538 21.2656 57.4681 21.8874 57.4681H33.2865C33.9082 57.4681 34.3227 57.0538 34.3227 56.4323C34.3227 47.8354 41.2658 40.8957 49.867 40.8957C58.4681 40.8957 65.4112 47.8354 65.4112 56.4323C65.4112 57.0538 65.8257 57.4681 66.4475 57.4681H76.8103H77.8466H81.9918C82.6135 57.4681 83.028 57.0538 83.028 56.4323C83.028 38.0992 68.2092 23.2876 49.867 23.2876ZM24.9962 31.5738H34.9445C30.903 34.0596 27.4833 37.3741 24.9962 41.5172V31.5738ZM67.3802 55.3966C66.862 46.1782 59.1935 38.8242 49.867 38.8242C40.5404 38.8242 32.872 46.1782 32.3538 55.3966H22.9236C23.5454 40.9993 35.359 29.5022 49.867 29.5022C64.3749 29.5022 76.1886 40.9993 76.8103 55.3966H67.3802ZM78.8829 55.3966C78.3648 40.1707 66.1366 27.9486 50.9033 27.4307V25.3591C67.2765 25.877 80.4373 39.0314 80.9555 55.3966H78.8829Z" fill="#64818D"/>
</g>
<defs>
<filter id="filter0_d" x="12.7056" y="23.2876" width="74.3225" height="66.0037" filterUnits="userSpaceOnUse" color-interpolation-filters="sRGB">
<feFlood flood-opacity="0" result="BackgroundImageFix"/>
<feColorMatrix in="SourceAlpha" type="matrix" values="0 0 0 0 0 0 0 0 0 0 0 0 0 0 0 0 0 0 127 0"/>
<feOffset dy="4"/>
<feGaussianBlur stdDeviation="2"/>
<feColorMatrix type="matrix" values="0 0 0 0 0 0 0 0 0 0 0 0 0 0 0 0 0 0 0.25 0"/>
<feBlend mode="normal" in2="BackgroundImageFix" result="effect1_dropShadow"/>
<feBlend mode="normal" in="SourceGraphic" in2="effect1_dropShadow" result="shape"/>
</filter>
</defs>
</svg>
