<svg width="101" height="101" viewBox="0 0 101 101" fill="none" xmlns="http://www.w3.org/2000/svg">
<circle cx="50.8843" cy="50.459" r="50" fill="#B7DEDC"/>
<g filter="url(#filter0_d)">
<path fill-rule="evenodd" clip-rule="evenodd" d="M43.2637 75.4567L45.0655 67.7868L30.9515 50.3394L21.0417 56.5512C18.339 58.4417 17.7384 61.6827 19.5402 64.1134L30.0506 77.3472C32.1527 79.7779 35.7563 80.3181 38.4589 78.6976L43.2637 75.4567ZM24.6452 60.8724L29.45 57.9016L34.3763 64.1134L39.9604 70.8653L35.1557 74.1063L24.6452 60.8724Z" fill="#4AADA8"/>
<path d="M45.0655 67.7868L46.039 68.0155C46.1097 67.7147 46.0373 67.3981 45.843 67.1579L45.0655 67.7868ZM43.2637 75.4567L43.8229 76.2857C44.0317 76.1449 44.1796 75.9305 44.2372 75.6854L43.2637 75.4567ZM30.9515 50.3394L31.729 49.7104C31.4108 49.3171 30.849 49.2234 30.4204 49.4921L30.9515 50.3394ZM21.0417 56.5512L20.5106 55.7039C20.4963 55.7128 20.4823 55.7221 20.4685 55.7317L21.0417 56.5512ZM19.5402 64.1134L18.7368 64.7089C18.7434 64.7178 18.7502 64.7266 18.7571 64.7353L19.5402 64.1134ZM30.0506 77.3472L29.2675 77.9691C29.2762 77.9801 29.2851 77.9908 29.2942 78.0013L30.0506 77.3472ZM38.4589 78.6976L38.9732 79.5553C38.9884 79.5461 39.0034 79.5366 39.0181 79.5266L38.4589 78.6976ZM29.45 57.9016L30.2335 57.2802C29.9183 56.8828 29.3555 56.7843 28.9241 57.051L29.45 57.9016ZM24.6452 60.8724L24.1193 60.0219C23.8764 60.1721 23.7093 60.419 23.6602 60.7004C23.611 60.9817 23.6845 61.2707 23.8622 61.4943L24.6452 60.8724ZM34.3763 64.1134L33.5928 64.7347C33.597 64.7401 33.6013 64.7454 33.6057 64.7507L34.3763 64.1134ZM39.9604 70.8653L40.5196 71.6944C40.7536 71.5366 40.9099 71.2873 40.9502 71.008C40.9905 70.7287 40.9109 70.4455 40.731 70.228L39.9604 70.8653ZM35.1557 74.1063L34.3726 74.7282C34.6973 75.1371 35.282 75.2273 35.7149 74.9353L35.1557 74.1063ZM44.092 67.5581L42.2902 75.228L44.2372 75.6854L46.039 68.0155L44.092 67.5581ZM30.174 50.9683L44.288 68.4157L45.843 67.1579L31.729 49.7104L30.174 50.9683ZM21.5728 57.3985L31.4826 51.1867L30.4204 49.4921L20.5106 55.7039L21.5728 57.3985ZM20.3435 63.5179C18.9117 61.5863 19.3244 58.9728 21.6149 57.3706L20.4685 55.7317C17.3536 57.9106 16.5651 61.779 18.7368 64.7089L20.3435 63.5179ZM30.8337 76.7253L20.3233 63.4914L18.7571 64.7353L29.2675 77.9691L30.8337 76.7253ZM37.9447 77.84C35.6547 79.213 32.5881 78.7527 30.807 76.6931L29.2942 78.0013C31.7172 80.8032 35.8578 81.4232 38.9732 79.5553L37.9447 77.84ZM42.7045 74.6276L37.8997 77.8686L39.0181 79.5266L43.8229 76.2857L42.7045 74.6276ZM28.9241 57.051L24.1193 60.0219L25.1711 61.723L29.9759 58.7521L28.9241 57.051ZM35.1598 63.492L30.2335 57.2802L28.6665 58.5229L33.5928 64.7347L35.1598 63.492ZM40.731 70.228L35.1469 63.476L33.6057 64.7507L39.1898 71.5026L40.731 70.228ZM35.7149 74.9353L40.5196 71.6944L39.4012 70.0363L34.5965 73.2772L35.7149 74.9353ZM23.8622 61.4943L34.3726 74.7282L35.9387 73.4844L25.4283 60.2505L23.8622 61.4943Z" fill="#65818C"/>
<path d="M34.9106 47.2215L46.6223 61.8057H56.2318V53.7034H65.2407V45.601H74.2497V37.4987H83.2586V29.3963L77.2526 21.2939L56.0816 34.2577L34.9106 47.2215Z" fill="#BFBEBE"/>
<path d="M34.9106 47.2215L46.6223 61.8057H56.2318V53.7034H65.2407V45.601H74.2497V37.4987H83.2586V29.3963L77.2526 21.2939L56.0816 34.2577L34.9106 47.2215Z" fill="url(#paint0_linear)"/>
<path d="M34.9106 47.2215L46.6223 61.8057H56.2318V53.7034H65.2407V45.601H74.2497V37.4987H83.2586V29.3963L77.2526 21.2939L56.0816 34.2577L34.9106 47.2215Z" stroke="#65818C" stroke-width="2" stroke-linejoin="round"/>
</g>
<defs>
<filter id="filter0_d" x="13.5088" y="20.2939" width="74.7498" height="68.33" filterUnits="userSpaceOnUse" color-interpolation-filters="sRGB">
<feFlood flood-opacity="0" result="BackgroundImageFix"/>
<feColorMatrix in="SourceAlpha" type="matrix" values="0 0 0 0 0 0 0 0 0 0 0 0 0 0 0 0 0 0 127 0"/>
<feOffset dy="4"/>
<feGaussianBlur stdDeviation="2"/>
<feColorMatrix type="matrix" values="0 0 0 0 0 0 0 0 0 0 0 0 0 0 0 0 0 0 0.25 0"/>
<feBlend mode="normal" in2="BackgroundImageFix" result="effect1_dropShadow"/>
<feBlend mode="normal" in="SourceGraphic" in2="effect1_dropShadow" result="shape"/>
</filter>
<linearGradient id="paint0_linear" x1="59.0846" y1="21.2939" x2="59.0846" y2="61.8057" gradientUnits="userSpaceOnUse">
<stop stop-color="white"/>
<stop offset="1" stop-color="white" stop-opacity="0"/>
</linearGradient>
</defs>
</svg>
