<svg width="102" height="102" viewBox="0 0 102 102" fill="none" xmlns="http://www.w3.org/2000/svg">
<circle cx="51.2872" cy="50.8619" r="50.4029" fill="#B7DEDC"/>
<g filter="url(#filter0_d)">
<rect x="24.125" y="64.3354" width="16.9548" height="14.9688" fill="white"/>
<rect x="61.1543" y="64.3354" width="16.9548" height="14.9688" fill="white"/>
<rect x="41.0796" y="55.0088" width="20.4905" height="24.2956" fill="#C4C4C4"/>
<path d="M47.5825 21.9458H55.2237L56.1299 35.4962L63.0028 43.9061H42.2124L47.5825 35.4962V21.9458Z" fill="#BFBEBE"/>
<path d="M47.5825 21.9458H55.2237L56.1299 35.4962L63.0028 43.9061H42.2124L47.5825 35.4962V21.9458Z" fill="url(#paint0_linear)"/>
<rect x="24.5405" y="55.0088" width="16.539" height="7.55654" fill="#4AADA8"/>
<rect x="23.9775" y="23.2749" width="16.539" height="11.8688" fill="white"/>
<rect x="61.5698" y="23.6279" width="16.539" height="11.8688" fill="white"/>
<rect x="62.0581" y="55.0088" width="16.539" height="7.55654" fill="#4AADA8"/>
<rect x="45.8936" y="66.4248" width="10.8625" height="7.46427" fill="white"/>
<path d="M79.213 52.4097H23.3616C23.025 52.4097 22.7021 52.5434 22.4641 52.7815C22.226 53.0195 22.0923 53.3424 22.0923 53.679V63.6053C22.0923 63.6053 22.0923 63.7323 22.0923 63.783C22.0923 63.8338 22.0923 63.91 22.0923 63.9861V79.066C22.0923 79.4027 22.226 79.7255 22.4641 79.9636C22.7021 80.2016 23.025 80.3354 23.3616 80.3354H79.213C79.5497 80.3354 79.8725 80.2016 80.1106 79.9636C80.3486 79.7255 80.4824 79.4027 80.4824 79.066V53.679C80.4824 53.3424 80.3486 53.0195 80.1106 52.7815C79.8725 52.5434 79.5497 52.4097 79.213 52.4097ZM77.9437 62.5645H62.7115V54.9484H77.9437V62.5645ZM39.8632 54.9484V62.5645H24.631V54.9484H39.8632ZM24.631 65.1032H39.8632V77.7967H24.631V65.1032ZM42.4019 77.7967V54.9484H60.1728V63.6053C60.1728 63.6053 60.1728 63.7323 60.1728 63.783C60.1728 63.8338 60.1728 63.91 60.1728 63.9861V77.7967H42.4019ZM62.7115 77.7967V65.1032H77.9437V77.7967H62.7115Z" fill="#64818D"/>
<path d="M23.3616 37.178H41.1325C41.4692 37.178 41.792 37.0443 42.0301 36.8062C42.2681 36.5682 42.4019 36.2453 42.4019 35.9086V23.2152C42.4019 22.8785 42.2681 22.5556 42.0301 22.3176C41.792 22.0795 41.4692 21.9458 41.1325 21.9458H23.3616C23.025 21.9458 22.7021 22.0795 22.4641 22.3176C22.226 22.5556 22.0923 22.8785 22.0923 23.2152V35.9086C22.0923 36.2453 22.226 36.5682 22.4641 36.8062C22.7021 37.0443 23.025 37.178 23.3616 37.178ZM24.631 24.4845H39.8632V34.6393H24.631V24.4845Z" fill="#64818D"/>
<path d="M79.2131 21.9458H61.4422C61.1055 21.9458 60.7827 22.0795 60.5446 22.3176C60.3066 22.5556 60.1729 22.8785 60.1729 23.2152V35.9086C60.1729 36.2453 60.3066 36.5682 60.5446 36.8062C60.7827 37.0443 61.1055 37.178 61.4422 37.178H79.2131C79.5497 37.178 79.8726 37.0443 80.1107 36.8062C80.3487 36.5682 80.4824 36.2453 80.4824 35.9086V23.2152C80.4824 22.8785 80.3487 22.5556 80.1107 22.3176C79.8726 22.0795 79.5497 21.9458 79.2131 21.9458ZM77.9437 34.6393H62.7116V24.4845H77.9437V34.6393Z" fill="#64818D"/>
<path d="M40.0659 42.8139C39.9361 43.0059 39.8614 43.2297 39.8497 43.4611C39.8381 43.6925 39.89 43.9226 39.9999 44.1266C40.1097 44.3306 40.2733 44.5007 40.4729 44.6183C40.6725 44.736 40.9005 44.7968 41.1322 44.7941H61.4418C61.6734 44.7968 61.9014 44.736 62.101 44.6183C62.3006 44.5007 62.4642 44.3306 62.574 44.1266C62.6839 43.9226 62.7358 43.6925 62.7242 43.4611C62.7125 43.2297 62.6378 43.0059 62.508 42.8139L57.6337 35.5278V23.2152C57.6337 22.8785 57.5 22.5556 57.2619 22.3176C57.0239 22.0795 56.701 21.9458 56.3644 21.9458H46.2096C45.8729 21.9458 45.55 22.0795 45.312 22.3176C45.0739 22.5556 44.9402 22.8785 44.9402 23.2152V35.5278L40.0659 42.8139ZM43.4931 42.2554L46.895 37.178H55.6789L59.0808 42.2554H43.4931ZM47.4789 24.4845H55.095V34.6393H47.4789V24.4845Z" fill="#64818D"/>
<path d="M56.3646 65.104H46.2098C45.8731 65.104 45.5503 65.2377 45.3122 65.4758C45.0742 65.7138 44.9404 66.0367 44.9404 66.3734V73.9895C44.9404 74.3261 45.0742 74.649 45.3122 74.887C45.5503 75.1251 45.8731 75.2588 46.2098 75.2588H56.3646C56.7012 75.2588 57.0241 75.1251 57.2621 74.887C57.5002 74.649 57.6339 74.3261 57.6339 73.9895V66.3734C57.6339 66.0367 57.5002 65.7138 57.2621 65.4758C57.0241 65.2377 56.7012 65.104 56.3646 65.104ZM55.0952 72.7201H47.4791V67.6427H55.0952V72.7201Z" fill="#64818D"/>
<path d="M46.2603 62.5656C46.597 62.5656 46.9199 62.4318 47.1579 62.1938C47.396 61.9557 47.5297 61.6329 47.5297 61.2962C47.5297 60.9596 47.396 60.6367 47.1579 60.3986C46.9199 60.1606 46.597 60.0269 46.2603 60.0269C46.0948 60.0268 45.931 60.0598 45.7784 60.1239C45.6257 60.188 45.4875 60.2819 45.3716 60.4001C45.2558 60.5183 45.1647 60.6585 45.1037 60.8124C45.0427 60.9662 45.013 61.1307 45.0164 61.2962C45.0163 61.6285 45.1466 61.9476 45.3791 62.1849C45.6117 62.4222 45.9281 62.5589 46.2603 62.5656Z" fill="#64818D"/>
<path d="M51.338 62.5656C51.6746 62.5656 51.9975 62.4318 52.2355 62.1938C52.4736 61.9557 52.6073 61.6329 52.6073 61.2962C52.6073 60.9596 52.4736 60.6367 52.2355 60.3986C51.9975 60.1606 51.6746 60.0269 51.338 60.0269C51.1725 60.0268 51.0086 60.0598 50.856 60.1239C50.7034 60.188 50.5651 60.2819 50.4493 60.4001C50.3334 60.5183 50.2423 60.6585 50.1813 60.8124C50.1203 60.9662 50.0906 61.1307 50.094 61.2962C50.0939 61.6285 50.2242 61.9476 50.4568 62.1849C50.6894 62.4222 51.0057 62.5589 51.338 62.5656Z" fill="#64818D"/>
<path d="M56.4151 60.0269C56.2496 60.0268 56.0857 60.0598 55.9331 60.1239C55.7805 60.188 55.6423 60.2819 55.5264 60.4001C55.4106 60.5183 55.3195 60.6585 55.2585 60.8124C55.1975 60.9662 55.1678 61.1307 55.1712 61.2962C55.1712 61.5473 55.2456 61.7927 55.3851 62.0014C55.5246 62.2102 55.7228 62.3729 55.9547 62.4689C56.1867 62.565 56.4419 62.5901 56.6881 62.5412C56.9344 62.4922 57.1606 62.3713 57.3381 62.1938C57.5156 62.0162 57.6365 61.7901 57.6855 61.5438C57.7344 61.2976 57.7093 61.0424 57.6132 60.8104C57.5172 60.5785 57.3545 60.3803 57.1457 60.2408C56.937 60.1013 56.6916 60.0269 56.4405 60.0269H56.4151Z" fill="#64818D"/>
<path d="M30.9778 60.027H33.5165C33.8532 60.027 34.1761 59.8932 34.4141 59.6552C34.6522 59.4171 34.7859 59.0943 34.7859 58.7576C34.7859 58.421 34.6522 58.0981 34.4141 57.8601C34.1761 57.622 33.8532 57.4883 33.5165 57.4883H30.9778C30.6412 57.4883 30.3183 57.622 30.0803 57.8601C29.8422 58.0981 29.7085 58.421 29.7085 58.7576C29.7085 59.0943 29.8422 59.4171 30.0803 59.6552C30.3183 59.8932 30.6412 60.027 30.9778 60.027Z" fill="#64818D"/>
<path d="M33.5165 29.562H30.9778C30.6412 29.562 30.3183 29.6957 30.0803 29.9338C29.8422 30.1718 29.7085 30.4947 29.7085 30.8314C29.7085 31.168 29.8422 31.4909 30.0803 31.7289C30.3183 31.967 30.6412 32.1007 30.9778 32.1007H33.5165C33.8532 32.1007 34.1761 31.967 34.4141 31.7289C34.6522 31.4909 34.7859 31.168 34.7859 30.8314C34.7859 30.4947 34.6522 30.1718 34.4141 29.9338C34.1761 29.6957 33.8532 29.562 33.5165 29.562Z" fill="#64818D"/>
<path d="M69.0579 32.1007H71.5966C71.9333 32.1007 72.2561 31.967 72.4942 31.7289C72.7322 31.4909 72.866 31.168 72.866 30.8314C72.866 30.4947 72.7322 30.1718 72.4942 29.9338C72.2561 29.6957 71.9333 29.562 71.5966 29.562H69.0579C68.7213 29.562 68.3984 29.6957 68.1604 29.9338C67.9223 30.1718 67.7886 30.4947 67.7886 30.8314C67.7886 31.168 67.9223 31.4909 68.1604 31.7289C68.3984 31.967 68.7213 32.1007 69.0579 32.1007Z" fill="#64818D"/>
<path d="M33.5165 67.6421H30.9778C30.6412 67.6421 30.3183 67.7758 30.0803 68.0139C29.8422 68.2519 29.7085 68.5748 29.7085 68.9114C29.7085 69.2481 29.8422 69.571 30.0803 69.809C30.3183 70.0471 30.6412 70.1808 30.9778 70.1808H33.5165C33.8532 70.1808 34.1761 70.0471 34.4141 69.809C34.6522 69.571 34.7859 69.2481 34.7859 68.9114C34.7859 68.5748 34.6522 68.2519 34.4141 68.0139C34.1761 67.7758 33.8532 67.6421 33.5165 67.6421Z" fill="#64818D"/>
<path d="M69.0579 60.027H71.5966C71.9333 60.027 72.2561 59.8932 72.4942 59.6552C72.7322 59.4171 72.866 59.0943 72.866 58.7576C72.866 58.421 72.7322 58.0981 72.4942 57.8601C72.2561 57.622 71.9333 57.4883 71.5966 57.4883H69.0579C68.7213 57.4883 68.3984 57.622 68.1604 57.8601C67.9223 58.0981 67.7886 58.421 67.7886 58.7576C67.7886 59.0943 67.9223 59.4171 68.1604 59.6552C68.3984 59.8932 68.7213 60.027 69.0579 60.027Z" fill="#64818D"/>
<path d="M71.5966 67.6421H69.0579C68.7213 67.6421 68.3984 67.7758 68.1604 68.0139C67.9223 68.2519 67.7886 68.5748 67.7886 68.9114C67.7886 69.2481 67.9223 69.571 68.1604 69.809C68.3984 70.0471 68.7213 70.1808 69.0579 70.1808H71.5966C71.9333 70.1808 72.2561 70.0471 72.4942 69.809C72.7322 69.571 72.866 69.2481 72.866 68.9114C72.866 68.5748 72.7322 68.2519 72.4942 68.0139C72.2561 67.7758 71.9333 67.6421 71.5966 67.6421Z" fill="#64818D"/>
</g>
<defs>
<filter id="filter0_d" x="18.0923" y="21.9458" width="66.3902" height="66.3896" filterUnits="userSpaceOnUse" color-interpolation-filters="sRGB">
<feFlood flood-opacity="0" result="BackgroundImageFix"/>
<feColorMatrix in="SourceAlpha" type="matrix" values="0 0 0 0 0 0 0 0 0 0 0 0 0 0 0 0 0 0 127 0"/>
<feOffset dy="4"/>
<feGaussianBlur stdDeviation="2"/>
<feColorMatrix type="matrix" values="0 0 0 0 0 0 0 0 0 0 0 0 0 0 0 0 0 0 0.25 0"/>
<feBlend mode="normal" in2="BackgroundImageFix" result="effect1_dropShadow"/>
<feBlend mode="normal" in="SourceGraphic" in2="effect1_dropShadow" result="shape"/>
</filter>
<linearGradient id="paint0_linear" x1="52.6076" y1="21.9458" x2="52.6076" y2="43.9061" gradientUnits="userSpaceOnUse">
<stop stop-color="white"/>
<stop offset="1" stop-color="white" stop-opacity="0"/>
</linearGradient>
</defs>
</svg>
