<svg width="101" height="101" viewBox="0 0 101 101" fill="none" xmlns="http://www.w3.org/2000/svg">
<circle cx="50.2876" cy="50.459" r="50" fill="#B7DEDC"/>
<g filter="url(#filter0_d)">
<path d="M51.8994 58.1726L53.1956 42.749L56.5595 50.305L60.4702 47.9653L59.232 63.2865L55.5822 56.0851L51.8994 58.1726Z" fill="white"/>
<path d="M34.7599 26.2523L34.0882 26.957C32.867 25.7929 32.867 23.8846 34.0882 22.7205L34.0882 22.7204C35.2824 21.5821 37.1994 21.5821 38.3936 22.7204L38.3937 22.7205L53.2135 36.8485C53.2135 36.8485 53.2136 36.8485 53.2136 36.8485C54.4348 38.0126 54.4348 39.9209 53.2136 41.085L34.7599 26.2523ZM34.7599 26.2523L34.0882 26.957L48.9072 41.084C48.9074 41.0841 48.9075 41.0843 48.9077 41.0844C49.1945 41.3585 49.5328 41.5735 49.9018 41.7192L50.2691 40.7891M34.7599 26.2523L50.2691 40.7891M50.2691 40.7891L49.9018 41.7192C50.2706 41.8648 50.6644 41.9391 51.061 41.9387M50.2691 40.7891L51.061 41.9387M51.061 41.9387C51.0605 41.9387 51.0601 41.9387 51.0597 41.9387L51.061 40.9387L51.061 41.9387ZM51.061 41.9387C51.4575 41.9391 51.8512 41.8649 52.22 41.7193C52.5888 41.5736 52.9268 41.3589 53.2135 41.0851L51.061 41.9387ZM27.0129 33.5699L26.34 34.2757L27.0129 33.5699C25.8187 32.4315 23.9016 32.4315 22.7073 33.5699C21.4862 34.734 21.4862 36.6423 22.7073 37.8064C22.7073 37.8064 22.7073 37.8064 22.7073 37.8064L37.5272 51.9345L38.1757 51.2542L37.5272 51.9345C38.1292 52.5084 38.9108 52.7883 39.68 52.7883C40.4493 52.7883 41.2308 52.5083 41.8327 51.9345C43.0539 50.7704 43.0539 48.8621 41.8327 47.698L27.0129 33.5699Z" fill="#D8DFE3" stroke="#64818D" stroke-width="2"/>
<mask id="path-4-inside-1" fill="white">
<path fill-rule="evenodd" clip-rule="evenodd" d="M74.1659 69.9179C75.8036 72.8833 76.1326 75.9031 76.1326 79.8145H70.4627C70.4627 74.7328 69.9626 72.7772 66.7611 69.3048C63.8588 70.9736 60.0331 70.6156 57.5287 68.2281C56.9933 67.7176 56.1557 67.6248 55.5186 68.0147C53.2236 69.4196 50.1348 69.1652 48.1274 67.2514L38.3255 57.9072C38.1591 57.7486 38.0108 57.5736 37.883 57.3852L37.1536 58.0805C36.1042 59.081 34.4028 59.081 33.3533 58.0805L33.3389 58.0668C32.2894 57.0664 32.2894 55.4444 33.3389 54.4439L55.3516 33.4588C56.401 32.4584 58.1024 32.4584 59.1519 33.4588L59.1663 33.4726C60.2158 34.473 60.2158 36.095 59.1663 37.0955L58.4369 37.7908C58.6345 37.9127 58.8181 38.0541 58.9845 38.2127L68.7863 47.5569C70.7938 49.4705 71.0607 52.4152 69.587 54.603C69.178 55.2105 69.2755 56.0089 69.8108 56.5192C72.3747 58.9634 72.7077 62.7275 70.8124 65.516C72.241 67.0443 73.3518 68.444 74.1659 69.9179ZM55.6943 56.0016C55.6349 55.8179 55.4428 55.7544 55.2693 55.8674L52.3255 57.7835C52.1513 57.897 52.0348 57.8351 52.058 57.641C52.058 57.641 52.8675 46.3545 52.8843 46.136C52.8775 45.9434 53.0096 45.9263 53.0893 46.1011C53.1825 46.3274 55.4735 52.1769 55.4735 52.1769C55.5161 52.3652 55.6873 52.418 55.8593 52.306L58.8045 50.3889C58.9781 50.2759 59.1131 50.3511 59.097 50.5459C59.097 50.5459 58.4041 62.0139 58.385 62.2106C58.3651 62.4078 58.2362 62.4356 58.1383 62.1858L55.6943 56.0016Z"/>
</mask>
<path fill-rule="evenodd" clip-rule="evenodd" d="M74.1659 69.9179C75.8036 72.8833 76.1326 75.9031 76.1326 79.8145H70.4627C70.4627 74.7328 69.9626 72.7772 66.7611 69.3048C63.8588 70.9736 60.0331 70.6156 57.5287 68.2281C56.9933 67.7176 56.1557 67.6248 55.5186 68.0147C53.2236 69.4196 50.1348 69.1652 48.1274 67.2514L38.3255 57.9072C38.1591 57.7486 38.0108 57.5736 37.883 57.3852L37.1536 58.0805C36.1042 59.081 34.4028 59.081 33.3533 58.0805L33.3389 58.0668C32.2894 57.0664 32.2894 55.4444 33.3389 54.4439L55.3516 33.4588C56.401 32.4584 58.1024 32.4584 59.1519 33.4588L59.1663 33.4726C60.2158 34.473 60.2158 36.095 59.1663 37.0955L58.4369 37.7908C58.6345 37.9127 58.8181 38.0541 58.9845 38.2127L68.7863 47.5569C70.7938 49.4705 71.0607 52.4152 69.587 54.603C69.178 55.2105 69.2755 56.0089 69.8108 56.5192C72.3747 58.9634 72.7077 62.7275 70.8124 65.516C72.241 67.0443 73.3518 68.444 74.1659 69.9179ZM55.6943 56.0016C55.6349 55.8179 55.4428 55.7544 55.2693 55.8674L52.3255 57.7835C52.1513 57.897 52.0348 57.8351 52.058 57.641C52.058 57.641 52.8675 46.3545 52.8843 46.136C52.8775 45.9434 53.0096 45.9263 53.0893 46.1011C53.1825 46.3274 55.4735 52.1769 55.4735 52.1769C55.5161 52.3652 55.6873 52.418 55.8593 52.306L58.8045 50.3889C58.9781 50.2759 59.1131 50.3511 59.097 50.5459C59.097 50.5459 58.4041 62.0139 58.385 62.2106C58.3651 62.4078 58.2362 62.4356 58.1383 62.1858L55.6943 56.0016Z" fill="#4AADA8"/>
<path d="M76.1326 79.8145V81.8145H78.1326V79.8145H76.1326ZM74.1659 69.9179L75.9167 68.951L75.9166 68.9509L74.1659 69.9179ZM70.4627 79.8145H68.4627V81.8145H70.4627V79.8145ZM66.7611 69.3048L68.2315 67.9491L67.1489 66.7748L65.7642 67.571L66.7611 69.3048ZM57.5287 68.2281L56.1485 69.6755L56.1487 69.6757L57.5287 68.2281ZM55.5186 68.0147L54.4745 66.3089L54.4745 66.3089L55.5186 68.0147ZM48.1274 67.2514L46.7473 68.699H46.7473L48.1274 67.2514ZM38.3255 57.9072L36.9455 59.3548L36.9455 59.3548L38.3255 57.9072ZM37.883 57.3852L39.5382 56.2626L38.2125 54.3078L36.503 55.9376L37.883 57.3852ZM37.1536 58.0805L35.7736 56.6329L35.7735 56.633L37.1536 58.0805ZM33.3533 58.0805L31.9733 59.5281L31.9733 59.5281L33.3533 58.0805ZM33.3389 58.0668L34.7189 56.6192L34.7188 56.6191L33.3389 58.0668ZM33.3389 54.4439L34.7189 55.8915L34.7189 55.8915L33.3389 54.4439ZM55.3516 33.4588L56.7316 34.9064L56.7317 34.9064L55.3516 33.4588ZM59.1519 33.4588L57.7718 34.9064L57.772 34.9066L59.1519 33.4588ZM59.1663 33.4726L60.5463 32.025L60.5462 32.0249L59.1663 33.4726ZM59.1663 37.0955L60.5463 38.5431L60.5463 38.5431L59.1663 37.0955ZM58.4369 37.7908L57.0569 36.3432L55.1802 38.1323L57.3872 39.4932L58.4369 37.7908ZM58.9845 38.2127L60.3645 36.7651L60.3642 36.7648L58.9845 38.2127ZM68.7863 47.5569L67.4063 49.0045L67.4064 49.0045L68.7863 47.5569ZM69.587 54.603L67.9282 53.4857L67.9281 53.4859L69.587 54.603ZM69.8108 56.5192L71.1909 55.0716L69.8108 56.5192ZM70.8124 65.516L69.1583 64.3917L68.2596 65.7139L69.3513 66.8818L70.8124 65.516ZM55.2693 55.8674L56.3604 57.5435L56.3604 57.5435L55.2693 55.8674ZM55.6943 56.0016L53.7913 56.6168L53.8109 56.6774L53.8343 56.7367L55.6943 56.0016ZM52.3255 57.7835L53.4166 59.4597L53.4166 59.4597L52.3255 57.7835ZM52.058 57.641L54.0438 57.8783L54.0494 57.8313L54.0528 57.7841L52.058 57.641ZM52.8843 46.136L54.8784 46.2893L54.887 46.1774L54.8831 46.0652L52.8843 46.136ZM53.0893 46.1011L54.9385 45.3393L54.9245 45.3053L54.9093 45.2718L53.0893 46.1011ZM55.4735 52.1769L57.4241 51.735L57.3908 51.588L57.3358 51.4475L55.4735 52.1769ZM55.8593 52.306L56.9503 53.9822L56.9503 53.9822L55.8593 52.306ZM58.8045 50.3889L59.8956 52.065L59.8956 52.065L58.8045 50.3889ZM59.097 50.5459L57.1038 50.3815L57.102 50.4034L57.1006 50.4253L59.097 50.5459ZM58.385 62.2106L60.3749 62.4108L60.3756 62.4038L58.385 62.2106ZM58.1383 62.1858L60.0006 61.4565L59.9983 61.4507L58.1383 62.1858ZM78.1326 79.8145C78.1326 75.8063 77.8044 72.3691 75.9167 68.951L72.4152 70.8848C73.8028 73.3974 74.1326 76 74.1326 79.8145H78.1326ZM70.4627 81.8145H76.1326V77.8145H70.4627V81.8145ZM65.2907 70.6605C66.8036 72.3014 67.52 73.4163 67.9172 74.595C68.3302 75.82 68.4627 77.295 68.4627 79.8145H72.4627C72.4627 77.2523 72.3452 75.2086 71.7077 73.3173C71.0546 71.3796 69.9201 69.7806 68.2315 67.9491L65.2907 70.6605ZM56.1487 69.6757C59.3194 72.6984 64.1177 73.1318 67.7581 71.0386L65.7642 67.571C63.5999 68.8155 60.7469 68.5328 58.9087 66.7805L56.1487 69.6757ZM56.5627 69.7205C56.4853 69.7679 56.4079 69.7787 56.348 69.7723C56.2888 69.7659 56.2155 69.7394 56.1485 69.6755L58.9089 66.7806C57.7197 65.6467 55.8875 65.444 54.4745 66.3089L56.5627 69.7205ZM46.7473 68.699C49.4335 71.2597 53.5215 71.5822 56.5628 69.7205L54.4745 66.3089C52.9258 67.2569 50.8362 67.0706 49.5074 65.8038L46.7473 68.699ZM36.9455 59.3548L46.7473 68.699L49.5074 65.8038L39.7055 56.4596L36.9455 59.3548ZM36.2278 58.5077C36.4362 58.8151 36.6771 59.0989 36.9455 59.3548L39.7055 56.4596C39.6411 56.3982 39.5853 56.332 39.5382 56.2626L36.2278 58.5077ZM38.5336 59.5281L39.263 58.8328L36.503 55.9376L35.7736 56.6329L38.5336 59.5281ZM31.9733 59.5281C33.7953 61.2651 36.7117 61.2652 38.5337 59.5281L35.7735 56.633C35.4968 56.8968 35.0102 56.8969 34.7333 56.6329L31.9733 59.5281ZM31.9588 59.5143L31.9733 59.5281L34.7334 56.633L34.7189 56.6192L31.9588 59.5143ZM31.9588 52.9963C30.0828 54.7848 30.0827 57.726 31.9589 59.5144L34.7188 56.6191C34.5952 56.5013 34.5518 56.3711 34.5518 56.2554C34.5518 56.1397 34.5952 56.0094 34.7189 55.8915L31.9588 52.9963ZM53.9716 32.0112L31.9588 52.9963L34.7189 55.8915L56.7316 34.9064L53.9716 32.0112ZM60.5319 32.0112C58.7099 30.2743 55.7935 30.2742 53.9715 32.0113L56.7317 34.9064C57.0084 34.6426 57.4949 34.6425 57.7718 34.9064L60.5319 32.0112ZM60.5462 32.0249L60.5317 32.0111L57.772 34.9066L57.7865 34.9204L60.5462 32.0249ZM60.5463 38.5431C62.4224 36.7546 62.4225 33.8134 60.5463 32.025L57.7864 34.9203C57.91 35.0381 57.9534 35.1683 57.9534 35.284C57.9534 35.3997 57.91 35.5299 57.7863 35.6479L60.5463 38.5431ZM59.8169 39.2384L60.5463 38.5431L57.7863 35.6478L57.0569 36.3432L59.8169 39.2384ZM60.3642 36.7648C60.0959 36.5091 59.8016 36.2827 59.4866 36.0884L57.3872 39.4932C57.4674 39.5427 57.5402 39.599 57.6048 39.6606L60.3642 36.7648ZM70.1664 46.1093L60.3645 36.7651L57.6045 39.6603L67.4063 49.0045L70.1664 46.1093ZM71.2458 55.7204C73.2606 52.7292 72.8842 48.7 70.1663 46.1092L67.4064 49.0045C68.7035 50.241 68.8608 52.1012 67.9282 53.4857L71.2458 55.7204ZM71.1909 55.0716C71.337 55.211 71.3999 55.4916 71.246 55.7202L67.9281 53.4859C66.9561 54.9293 67.214 56.8068 68.4308 57.9669L71.1909 55.0716ZM72.4665 66.6403C74.9077 63.0485 74.4677 58.1954 71.1909 55.0716L68.4308 57.9669C70.2817 59.7313 70.5076 62.4065 69.1583 64.3917L72.4665 66.6403ZM75.9166 68.9509C74.9908 67.2748 73.7582 65.7386 72.2734 64.1502L69.3513 66.8818C70.7238 68.35 71.7128 69.6132 72.4152 70.8849L75.9166 68.9509ZM56.3604 57.5435C56.0146 57.7686 55.4863 57.9111 54.9143 57.7279C54.3293 57.5404 53.9434 57.0875 53.7913 56.6168L57.5974 55.3865C57.3858 54.7321 56.8742 54.1555 56.1349 53.9186C55.4086 53.6859 54.6975 53.8532 54.1782 54.1912L56.3604 57.5435ZM53.4166 59.4597L56.3604 57.5435L54.1782 54.1912L51.2345 56.1073L53.4166 59.4597ZM50.0721 57.4037C50.0314 57.7442 49.9974 58.965 51.1784 59.5933C52.2381 60.157 53.1769 59.6157 53.4166 59.4597L51.2345 56.1073C51.2999 56.0648 52.0934 55.5493 53.057 56.0619C54.142 56.6391 54.0613 57.732 54.0438 57.8783L50.0721 57.4037ZM50.8902 45.9827C50.8813 46.0987 50.674 48.9846 50.47 51.8273C50.3677 53.2518 50.266 54.6694 50.1898 55.731C50.1518 56.2617 50.1201 56.7035 50.0979 57.0125C50.0868 57.1671 50.0781 57.2884 50.0722 57.3711C50.0692 57.4125 50.0669 57.4442 50.0654 57.4656C50.0646 57.4762 50.0641 57.4843 50.0637 57.4898C50.0635 57.4925 50.0633 57.4945 50.0632 57.4959C50.0632 57.4966 50.0631 57.4971 50.0631 57.4974C50.0631 57.4976 50.0631 57.4977 50.0631 57.4978C50.0631 57.4979 50.0631 57.4979 52.058 57.641C54.0528 57.7841 54.0528 57.7841 54.0528 57.784C54.0528 57.7839 54.0529 57.7838 54.0529 57.7836C54.0529 57.7833 54.0529 57.7827 54.053 57.7821C54.0531 57.7807 54.0532 57.7787 54.0534 57.7759C54.0538 57.7705 54.0544 57.7624 54.0552 57.7517C54.0567 57.7304 54.059 57.6987 54.0619 57.6573C54.0679 57.5746 54.0766 57.4533 54.0876 57.2987C54.1098 56.9897 54.1415 56.548 54.1796 56.0172C54.2557 54.9557 54.3575 53.5381 54.4597 52.1136C54.562 50.6892 54.6647 49.258 54.743 48.1692C54.7821 47.6248 54.8151 47.1662 54.8388 46.8368C54.8507 46.6721 54.8602 46.5399 54.8671 46.4456C54.8705 46.3984 54.8732 46.3609 54.8752 46.3337C54.8762 46.32 54.877 46.3092 54.8776 46.3012C54.8782 46.2923 54.8785 46.2891 54.8784 46.2893L50.8902 45.9827ZM54.9093 45.2718C54.8062 45.0455 54.6267 44.7443 54.3182 44.482C54.0202 44.2287 53.4312 43.8834 52.649 44.0042C51.8142 44.1332 51.3222 44.7024 51.105 45.1472C50.901 45.5651 50.8768 45.9592 50.8856 46.2068L54.8831 46.0652C54.8884 46.2165 54.8782 46.5362 54.6995 46.9022C54.5077 47.2951 54.0525 47.8348 53.2598 47.9573C52.5197 48.0716 51.9782 47.7428 51.7272 47.5294C51.4656 47.307 51.3326 47.0692 51.2693 46.9303L54.9093 45.2718ZM55.4735 52.1769C57.3358 51.4475 57.3358 51.4475 57.3357 51.4475C57.3357 51.4474 57.3357 51.4473 57.3357 51.4473C57.3356 51.4471 57.3355 51.4468 57.3353 51.4465C57.3351 51.4457 57.3346 51.4447 57.3341 51.4433C57.333 51.4405 57.3313 51.4363 57.3292 51.4307C57.3248 51.4196 57.3184 51.4032 57.31 51.3817C57.2932 51.3388 57.2685 51.2759 57.2371 51.1956C57.1743 51.0352 57.0844 50.8058 56.9763 50.5298C56.76 49.9778 56.4706 49.2394 56.1784 48.4939C55.6011 47.0214 54.9938 45.4735 54.9385 45.3393L51.24 46.8628C51.2395 46.8616 51.2482 46.883 51.2721 46.9433C51.2933 46.9969 51.3222 47.07 51.3578 47.1604C51.4289 47.3409 51.5257 47.5872 51.6396 47.877C51.8672 48.4567 52.1622 49.2086 52.4543 49.9538C52.7465 50.699 53.0357 51.4371 53.2519 51.9889C53.36 52.2649 53.4498 52.4942 53.5126 52.6546C53.5441 52.7347 53.5687 52.7977 53.5855 52.8405C53.5939 52.862 53.6003 52.8784 53.6047 52.8895C53.6068 52.895 53.6085 52.8992 53.6096 52.902C53.6101 52.9034 53.6105 52.9045 53.6108 52.9052C53.611 52.9055 53.6111 52.9058 53.6111 52.906C53.6112 52.9061 53.6112 52.9061 53.6112 52.9062C53.6112 52.9062 53.6112 52.9062 55.4735 52.1769ZM54.7682 50.6298C55.0341 50.4567 55.5774 50.2369 56.2388 50.4529C56.9623 50.6892 57.321 51.2801 57.4241 51.735L53.5229 52.6187C53.6686 53.2619 54.1343 53.9734 54.9969 54.2552C55.7975 54.5167 56.5124 54.2672 56.9503 53.9822L54.7682 50.6298ZM57.7135 48.7127L54.7682 50.6298L56.9503 53.9822L59.8956 52.065L57.7135 48.7127ZM61.0902 50.7103C61.1311 50.2151 61.0164 49.1596 59.9768 48.5947C58.9925 48.0599 58.0842 48.4714 57.7135 48.7127L59.8956 52.065C59.6984 52.1934 58.9443 52.5861 58.067 52.1093C57.1342 51.6024 57.079 50.6819 57.1038 50.3815L61.0902 50.7103ZM60.3756 62.4038C60.3898 62.2575 60.5716 59.2725 60.7445 56.4257C60.8323 54.9797 60.9195 53.5399 60.9848 52.4617C61.0174 51.9225 61.0445 51.4737 61.0635 51.1598C61.073 51.0028 61.0805 50.8795 61.0856 50.7954C61.0881 50.7534 61.0901 50.7212 61.0914 50.6994C61.092 50.6886 61.0925 50.6804 61.0928 50.6748C61.093 50.6721 61.0931 50.67 61.0932 50.6686C61.0933 50.6679 61.0933 50.6674 61.0933 50.667C61.0933 50.6669 61.0933 50.6667 61.0933 50.6666C61.0934 50.6666 61.0934 50.6665 59.097 50.5459C57.1006 50.4253 57.1006 50.4253 57.1006 50.4254C57.1006 50.4255 57.1006 50.4256 57.1006 50.4258C57.1006 50.4261 57.1006 50.4266 57.1005 50.4273C57.1004 50.4287 57.1003 50.4308 57.1001 50.4336C57.0998 50.4391 57.0993 50.4473 57.0986 50.4581C57.0973 50.4798 57.0954 50.512 57.0929 50.5541C57.0878 50.6381 57.0803 50.7614 57.0708 50.9183C57.0518 51.2322 57.0247 51.6809 56.9921 52.22C56.9268 53.2981 56.8396 54.7376 56.7518 56.1832C56.664 57.6289 56.5756 59.0804 56.508 60.1825C56.4742 60.7337 56.4456 61.1969 56.4249 61.5281C56.402 61.8954 56.3923 62.038 56.3943 62.0174L60.3756 62.4038ZM56.276 62.915C56.3506 63.1054 56.4829 63.384 56.7202 63.6511C56.932 63.8896 57.4639 64.3725 58.3069 64.3657C59.2392 64.3583 59.8084 63.7707 60.0511 63.3798C60.284 63.0045 60.3522 62.6369 60.3749 62.4108L56.395 62.0103C56.4078 61.8829 56.4524 61.5926 56.6526 61.2703C56.8624 60.9322 57.3896 60.3729 58.2749 60.3659C59.0709 60.3595 59.551 60.8149 59.7105 60.9944C59.8955 61.2026 59.975 61.391 60.0006 61.4565L56.276 62.915ZM53.8343 56.7367L56.2783 62.9209L59.9983 61.4507L57.5543 55.2666L53.8343 56.7367Z" fill="#64818D" mask="url(#path-4-inside-1)"/>
</g>
<defs>
<filter id="filter0_d" x="16.7915" y="20.8667" width="63.3411" height="66.9478" filterUnits="userSpaceOnUse" color-interpolation-filters="sRGB">
<feFlood flood-opacity="0" result="BackgroundImageFix"/>
<feColorMatrix in="SourceAlpha" type="matrix" values="0 0 0 0 0 0 0 0 0 0 0 0 0 0 0 0 0 0 127 0"/>
<feOffset dy="4"/>
<feGaussianBlur stdDeviation="2"/>
<feColorMatrix type="matrix" values="0 0 0 0 0 0 0 0 0 0 0 0 0 0 0 0 0 0 0.25 0"/>
<feBlend mode="normal" in2="BackgroundImageFix" result="effect1_dropShadow"/>
<feBlend mode="normal" in="SourceGraphic" in2="effect1_dropShadow" result="shape"/>
</filter>
</defs>
</svg>
