<svg width="101" height="101" viewBox="0 0 101 101" fill="none" xmlns="http://www.w3.org/2000/svg">
<circle cx="50.4956" cy="50.459" r="50" fill="#B7DEDC"/>
<g filter="url(#filter0_d)">
<path d="M22.4009 79.0537H39.0124V73.5192H22.4009V79.0537ZM49.1639 27.3987H65.7755V21.8643H49.1639V27.3987ZM74.0812 42.1573V58.7607H79.6184V42.1573H74.0812Z" fill="#4AADA8"/>
<path d="M63.9297 44.9247V27.3989H51.0096V44.9247H41.781C32.0909 44.9247 24.2466 52.7652 24.2466 62.4505V73.5194H37.1667V62.4505C37.1667 59.8677 39.197 57.8384 41.781 57.8384H74.0812V44.9247H63.9297Z" fill="white"/>
<path d="M63.9297 44.9247V27.3989H51.0096V44.9247H41.781C32.0909 44.9247 24.2466 52.7652 24.2466 62.4505V73.5194H37.1667V62.4505C37.1667 59.8677 39.197 57.8384 41.781 57.8384H74.0812V44.9247H63.9297Z" fill="url(#paint0_linear)"/>
<path d="M27.9381 65.2176C27.3844 65.2176 27.0152 65.5865 27.0152 66.14V69.8296C27.0152 70.3831 27.3844 70.752 27.9381 70.752C28.4918 70.752 28.8609 70.3831 28.8609 69.8296V66.14C28.8609 65.5865 28.4918 65.2176 27.9381 65.2176ZM45.4725 47.6918H41.781C33.6598 47.6918 27.0152 54.3331 27.0152 62.4504C27.0152 63.0038 27.3844 63.3728 27.9381 63.3728C28.4918 63.3728 28.8609 63.0038 28.8609 62.4504C28.8609 55.3478 34.675 49.5366 41.781 49.5366H45.4725C46.0262 49.5366 46.3953 49.1676 46.3953 48.6142C46.3953 48.0608 46.0262 47.6918 45.4725 47.6918ZM78.6956 42.1573H75.0041C73.989 42.1573 73.1584 42.9875 73.1584 44.0021H64.8526V28.3212C65.8678 28.3212 66.6983 27.491 66.6983 26.4764V22.7867C66.6983 21.7721 65.8678 20.9419 64.8526 20.9419H50.0868C49.0716 20.9419 48.2411 21.7721 48.2411 22.7867V26.4764C48.2411 27.491 49.0716 28.3212 50.0868 28.3212V44.0021H41.781C31.6295 44.0021 23.3238 52.3038 23.3238 62.4504V72.5969C22.3086 72.5969 21.478 73.427 21.478 74.4417V78.1313C21.478 79.146 22.3086 79.9761 23.3238 79.9761H38.0896C39.1047 79.9761 39.9353 79.146 39.9353 78.1313V74.4417C39.9353 73.427 39.1047 72.5969 38.0896 72.5969V62.4504C38.0896 60.4211 39.7507 58.7607 41.781 58.7607H73.1584C73.1584 59.7754 73.989 60.6055 75.0041 60.6055H78.6956C79.7107 60.6055 80.5413 59.7754 80.5413 58.7607V44.0021C80.5413 42.9875 79.7107 42.1573 78.6956 42.1573ZM50.0868 22.7867H64.8526V26.4764H50.0868V22.7867ZM38.0896 78.1313H23.3238V74.4417H38.0896V78.1313ZM73.1584 56.9159H41.781C38.7356 56.9159 36.2438 59.4064 36.2438 62.4504V72.5969H25.1695V62.4504C25.1695 53.3185 32.6447 45.847 41.781 45.847H50.5482L51.1942 46.4927C51.5634 46.8616 52.2094 46.8616 52.5785 46.4927C52.9477 46.1237 52.9477 45.478 52.5785 45.1091L51.9325 44.4634V28.3212H63.0069V44.4634L62.3609 45.1091C61.9917 45.478 61.9917 46.1237 62.3609 46.4927C62.73 46.8616 63.376 46.8616 63.7452 46.4927L64.3912 45.847H73.1584V56.9159ZM78.6956 58.7607H75.0041V44.0021H78.6956V58.7607Z" fill="#64818D"/>
</g>
<defs>
<filter id="filter0_d" x="17.478" y="20.9419" width="67.0633" height="67.0342" filterUnits="userSpaceOnUse" color-interpolation-filters="sRGB">
<feFlood flood-opacity="0" result="BackgroundImageFix"/>
<feColorMatrix in="SourceAlpha" type="matrix" values="0 0 0 0 0 0 0 0 0 0 0 0 0 0 0 0 0 0 127 0"/>
<feOffset dy="4"/>
<feGaussianBlur stdDeviation="2"/>
<feColorMatrix type="matrix" values="0 0 0 0 0 0 0 0 0 0 0 0 0 0 0 0 0 0 0.25 0"/>
<feBlend mode="normal" in2="BackgroundImageFix" result="effect1_dropShadow"/>
<feBlend mode="normal" in="SourceGraphic" in2="effect1_dropShadow" result="shape"/>
</filter>
<linearGradient id="paint0_linear" x1="49.1639" y1="27.3989" x2="49.1639" y2="73.5194" gradientUnits="userSpaceOnUse">
<stop stop-color="white"/>
<stop offset="1" stop-color="white" stop-opacity="0"/>
</linearGradient>
</defs>
</svg>
