<svg width="101" height="101" viewBox="0 0 101 101" fill="none" xmlns="http://www.w3.org/2000/svg">
<circle cx="50.8843" cy="50.459" r="50" fill="#B7DEDC"/>
<g clip-path="url(#clip0)" filter="url(#filter0_d)">
<path d="M78.725 27.49L74.3922 31.8962C72.9172 33.3962 70.6125 33.3962 69.1375 31.8962C67.6625 30.3962 67.6625 28.0525 69.1375 26.5525L73.4703 22.1462C69.7828 20.4587 65.2656 21.2087 62.2234 24.3025C59.6422 26.9275 58.7203 30.6775 59.55 34.0525L34.6593 59.365C31.3406 58.5212 27.6531 59.365 25.0718 62.0837C22.1218 65.1775 21.3843 69.6775 23.0437 73.5212L27.3765 69.115C28.8515 67.615 31.1562 67.615 32.6312 69.115C34.1062 70.615 34.1062 72.9587 32.6312 74.4587L28.2984 78.865C31.9859 80.5525 36.5031 79.8025 39.5453 76.7087C42.1265 74.0837 43.0484 70.3337 42.2187 66.9587L67.1093 41.6462C70.4281 42.49 74.1156 41.6462 76.6968 38.9275C79.6469 35.8337 80.3843 31.24 78.725 27.49Z" fill="white"/>
<path d="M61.3937 39.7715C60.6562 39.0215 59.5499 39.0215 58.8124 39.7715L40.3749 58.5215C39.6374 59.2715 39.6374 60.3965 40.3749 61.1465C41.1124 61.8965 42.2187 61.8965 42.9562 61.1465L61.3937 42.3965C62.1312 41.6465 62.1312 40.5215 61.3937 39.7715Z" fill="#4AADA8"/>
<path d="M32.4469 61.6151C32.4469 61.6151 31.6172 61.8026 31.6172 62.4589C31.6172 63.1151 32.5391 63.3026 32.5391 63.3026C34.0141 63.2089 35.5812 63.6776 36.6875 64.8964C37.8859 66.1151 38.3469 67.6151 38.2547 69.1151C38.2547 69.1151 38.3469 70.0526 39.0844 70.0526C39.7297 70.0526 39.9141 69.2089 39.9141 69.2089C40.0062 67.2401 39.3609 65.2714 37.7937 63.7714C36.3187 62.2714 34.3828 61.5214 32.4469 61.6151ZM58.075 39.1151L39.7297 57.7714C38.6234 58.8964 38.6234 60.6776 39.7297 61.8026C40.8359 62.9276 42.5875 62.9276 43.6937 61.8026L62.0391 43.1464C63.1453 42.0214 63.1453 40.2401 62.0391 39.1151C60.9328 37.9901 59.1812 37.9901 58.075 39.1151ZM60.7484 41.6464L42.2187 60.4901C41.85 60.8651 41.2969 60.8651 40.9281 60.4901C40.5594 60.1151 40.5594 59.5526 40.9281 59.1776L59.4578 40.3339C59.8266 39.9589 60.3797 39.9589 60.7484 40.3339C61.1172 40.7089 61.1172 41.3651 60.7484 41.6464ZM69.3219 37.5214C67.8469 37.6151 66.2797 37.1464 65.1734 35.9276C63.975 34.7089 63.5141 33.2089 63.6062 31.7089C63.6062 31.7089 63.5141 30.7714 62.7766 30.7714C62.1312 30.7714 61.9469 31.6151 61.9469 31.6151C61.8547 33.5839 62.5 35.5526 64.0672 37.0526C65.5422 38.5526 67.5703 39.3026 69.4141 39.2089C69.4141 39.2089 70.2437 39.1151 70.2437 38.3651C70.1516 37.6151 69.3219 37.5214 69.3219 37.5214ZM78.8172 26.0839L77.0656 27.8651L74.0234 30.9589C72.9172 32.0839 71.1656 32.0839 70.0594 30.9589C68.9531 29.8339 68.9531 28.0526 70.0594 26.9276L73.1016 23.8339L74.8531 22.0526C70.6125 19.5214 65.2656 19.8964 61.4859 23.7401C58.7203 26.5526 57.7062 30.3964 58.3516 34.0526L34.6594 58.0526C31.1562 57.3964 27.2844 58.4276 24.5187 61.2401C20.8312 64.9901 20.3703 70.5214 22.9516 74.8339L24.7031 73.0526L27.7453 69.9589C28.8516 68.8339 30.6031 68.8339 31.7094 69.9589C32.8156 71.0839 32.8156 72.8651 31.7094 73.9901L28.6672 77.0839L26.9156 78.8651C31.1562 81.3964 36.5953 81.0214 40.2828 77.2714C43.0484 74.4589 44.0625 70.6151 43.4172 66.9589L67.1094 42.8651C70.6125 43.5214 74.4844 42.4901 77.25 39.6776C80.9375 35.9276 81.3062 30.3964 78.8172 26.0839ZM75.8672 38.3651C73.2859 40.9901 69.6906 41.7401 66.4641 40.8026L66.5562 40.8964L41.3891 66.3964L41.2969 66.3026C42.3109 69.5839 41.4812 73.2401 38.9 75.8651C36.4109 78.3964 33.1844 78.9589 30.1422 78.1151L33 75.2089C34.8437 73.3339 34.8437 70.3339 33.0922 68.4589C31.2484 66.5839 28.2984 66.6776 26.4547 68.5526L23.5969 71.4589C22.7672 68.2714 23.4125 64.9901 25.8094 62.5526C28.3906 59.9276 31.9859 59.1776 35.2125 60.1151L60.3797 34.5214L60.4719 34.6151C59.4578 31.3339 60.2875 27.6776 62.8687 25.0526C65.3578 22.5214 68.5844 21.9589 71.6266 22.8026L68.7687 25.7089C66.925 27.5839 66.925 30.5839 68.6766 32.4589C70.5203 34.3339 73.4703 34.2401 75.3141 32.3651L78.1719 29.4589C79.0016 32.5526 78.3562 35.8339 75.8672 38.3651Z" fill="#64818D"/>
<path d="M77.2499 68.9277L59.1812 50.459C54.0187 55.709 57.0608 52.6152 54.5718 55.1465C52.0827 57.6777 52.4515 57.3027 49.9624 59.834L68.1233 78.209C70.6124 80.7402 74.7608 80.7402 77.2499 78.209C79.739 75.584 79.739 71.459 77.2499 68.9277Z" fill="#4AADA8"/>
<path d="M33.3687 30.7715V27.959L25.0718 22.334L22.3062 25.1465L26.9155 33.584H30.603L51.0687 54.209L53.6499 51.584L33.3687 30.7715Z" fill="white"/>
<path d="M58.2593 46.709L46.2749 58.8027L49.9624 62.6465L61.9468 50.459L58.2593 46.709Z" fill="#D8DFE3"/>
<path d="M61.7624 58.2402C61.3937 57.8652 60.8405 57.8652 60.4718 58.2402C60.103 58.6152 60.103 59.1777 60.4718 59.5527L72.364 71.6465C72.7327 72.0215 73.2858 72.0215 73.6546 71.6465C74.0233 71.2715 74.0233 70.709 73.6546 70.334L61.7624 58.2402ZM77.3421 67.8027L62.1312 52.4277L62.3155 52.2402C63.053 51.4902 63.053 50.2715 62.3155 49.5215L59.1812 46.334C58.4437 45.584 57.2452 45.584 56.5077 46.334L53.189 49.709L34.2905 30.3965V27.209C34.2905 27.209 34.2905 27.209 34.2905 27.1152V27.0215C34.2905 27.0215 34.2905 27.0215 34.2905 26.9277C34.2905 26.834 34.2905 26.834 34.2905 26.7402C34.1983 26.459 33.9218 26.1777 33.6452 26.084L25.5327 21.4902H25.4405H25.3483C25.2562 21.3965 25.164 21.3965 25.0718 21.3965H24.9796C24.8874 21.3965 24.7952 21.3965 24.7952 21.3965C24.703 21.3965 24.703 21.4902 24.6108 21.4902C24.6108 21.4902 24.5187 21.4902 24.5187 21.584C24.5187 21.584 24.4265 21.584 24.4265 21.6777L21.6608 24.4902C21.6608 24.4902 21.6608 24.584 21.5687 24.584L21.4765 24.6777C21.4765 24.7715 21.3843 24.7715 21.3843 24.8652C21.3843 24.959 21.3843 25.0527 21.3843 25.0527C21.3843 25.0527 21.3843 25.1465 21.3843 25.1465C21.3843 25.2402 21.3843 25.334 21.4765 25.4277V25.5215V25.6152L25.9937 33.7715C26.0858 34.1465 26.2702 34.334 26.639 34.4277C26.7312 34.4277 26.7312 34.4277 26.8233 34.4277C26.8233 34.4277 26.8233 34.4277 26.9155 34.4277H27.0077C27.0077 34.4277 27.0077 34.4277 27.0999 34.4277H30.2343L49.1327 53.6465L45.814 57.0215C45.0765 57.7715 45.0765 58.9902 45.814 59.7402L48.9483 62.9277C49.6858 63.6777 50.8843 63.6777 51.6218 62.9277L51.8062 62.7402L67.0171 78.209C69.8749 81.1152 74.4843 81.1152 77.3421 78.209C80.1999 75.3965 80.1999 70.709 77.3421 67.8027ZM31.3405 33.0215C31.2483 32.9277 31.1562 32.834 30.9718 32.7402C30.7874 32.6465 30.6952 32.6465 30.5108 32.6465H27.4687L23.4124 25.4277L25.2562 23.5527L32.4468 27.584V30.6777C32.4468 30.7715 32.4468 30.959 32.539 31.0527C32.6312 31.2402 32.7233 31.334 32.8155 31.4277L51.9905 50.9277L50.5155 52.4277L31.3405 33.0215ZM50.4233 61.709L47.1968 58.5215L57.8905 47.6465L61.0249 50.834L50.4233 61.709ZM76.0515 76.9902C73.9312 79.1465 70.428 79.1465 68.3077 76.9902L53.189 61.5215L60.9327 53.6465L76.1437 69.1152C78.1718 71.3652 78.1718 74.834 76.0515 76.9902ZM58.9968 61.0527C58.628 60.6777 58.0749 60.6777 57.7062 61.0527C57.3374 61.4277 57.3374 61.9902 57.7062 62.3652L69.5983 74.459C69.9671 74.834 70.5202 74.834 70.889 74.459C71.2577 74.084 71.2577 73.5215 70.889 73.1465L58.9968 61.0527Z" fill="#64818D"/>
</g>
<defs>
<filter id="filter0_d" x="17.3843" y="20.459" width="67" height="68" filterUnits="userSpaceOnUse" color-interpolation-filters="sRGB">
<feFlood flood-opacity="0" result="BackgroundImageFix"/>
<feColorMatrix in="SourceAlpha" type="matrix" values="0 0 0 0 0 0 0 0 0 0 0 0 0 0 0 0 0 0 127 0"/>
<feOffset dy="4"/>
<feGaussianBlur stdDeviation="2"/>
<feColorMatrix type="matrix" values="0 0 0 0 0 0 0 0 0 0 0 0 0 0 0 0 0 0 0.25 0"/>
<feBlend mode="normal" in2="BackgroundImageFix" result="effect1_dropShadow"/>
<feBlend mode="normal" in="SourceGraphic" in2="effect1_dropShadow" result="shape"/>
</filter>
<clipPath id="clip0">
<rect width="59" height="60" fill="white" transform="translate(21.3843 20.459)"/>
</clipPath>
</defs>
</svg>
