<svg width="101" height="101" viewBox="0 0 101 101" fill="none" xmlns="http://www.w3.org/2000/svg">
<circle cx="50.4956" cy="50.459" r="50" fill="#B7DEDC"/>
<g filter="url(#filter0_d)">
<path d="M47.4738 50.8599H29.3411V47.9111H23.2969V53.8086C23.2969 54.5907 23.6153 55.3407 24.182 55.8937C24.7488 56.4467 25.5175 56.7574 26.319 56.7574H44.4517V62.6548H41.4296V74.3473C41.4296 77.661 44.1601 80.3473 47.4738 80.3473C50.7875 80.3473 53.518 77.661 53.518 74.3473V62.6548H50.4959V53.8086C50.4959 53.0266 50.1775 52.2765 49.6107 51.7235C49.044 51.1705 48.2753 50.8599 47.4738 50.8599Z" fill="#D8DFE3" stroke="#65818C" stroke-width="2" stroke-linecap="round" stroke-linejoin="round"/>
<path d="M74.6728 23.5249H26.319C25.5175 23.5249 24.7488 23.8356 24.182 24.3886C23.6153 24.9416 23.2969 25.6916 23.2969 26.4736V41.2174C23.2969 41.9994 23.6153 42.7494 24.182 43.3024C24.7488 43.8554 25.5175 44.1661 26.319 44.1661H74.6728C75.4743 44.1661 76.243 43.8554 76.8097 43.3024C77.3765 42.7494 77.6949 41.9994 77.6949 41.2174V26.4736C77.6949 25.6916 77.3765 24.9416 76.8097 24.3886C76.243 23.8356 75.4743 23.5249 74.6728 23.5249Z" fill="#F4AA41"/>
<path d="M74.6728 23.5249H26.319C25.5175 23.5249 24.7488 23.8356 24.182 24.3886C23.6153 24.9416 23.2969 25.6916 23.2969 26.4736V41.2174C23.2969 41.9994 23.6153 42.7494 24.182 43.3024C24.7488 43.8554 25.5175 44.1661 26.319 44.1661H74.6728C75.4743 44.1661 76.243 43.8554 76.8097 43.3024C77.3765 42.7494 77.6949 41.9994 77.6949 41.2174V26.4736C77.6949 25.6916 77.3765 24.9416 76.8097 24.3886C76.243 23.8356 75.4743 23.5249 74.6728 23.5249Z" fill="url(#paint0_linear)"/>
<path d="M74.6728 23.5249H26.319C25.5175 23.5249 24.7488 23.8356 24.182 24.3886C23.6153 24.9416 23.2969 25.6916 23.2969 26.4736V41.2174C23.2969 41.9994 23.6153 42.7494 24.182 43.3024C24.7488 43.8554 25.5175 44.1661 26.319 44.1661H74.6728C75.4743 44.1661 76.243 43.8554 76.8097 43.3024C77.3765 42.7494 77.6949 41.9994 77.6949 41.2174V26.4736C77.6949 25.6916 77.3765 24.9416 76.8097 24.3886C76.243 23.8356 75.4743 23.5249 74.6728 23.5249Z" stroke="#65818C" stroke-width="2" stroke-linecap="round" stroke-linejoin="round"/>
<path d="M69.0267 50.0571L65.4186 53.6635C64.7053 54.3767 64.2195 55.2854 64.0227 56.2746C63.826 57.2637 63.9271 58.289 64.3133 59.2207C64.6995 60.1525 65.3534 60.9488 66.1924 61.5091C67.0313 62.0694 68.0177 62.3684 69.0267 62.3684C70.0357 62.3684 71.022 62.0694 71.861 61.5091C72.7 60.9488 73.3539 60.1525 73.7401 59.2207C74.1263 58.289 74.2274 57.2637 74.0306 56.2746C73.8339 55.2854 73.3481 54.3767 72.6347 53.6635L69.0267 50.0571Z" fill="#7AD4D0" stroke="#65818C" stroke-width="2" stroke-linecap="round" stroke-linejoin="round"/>
</g>
<defs>
<filter id="filter0_d" x="18.2969" y="22.5249" width="64.398" height="66.8224" filterUnits="userSpaceOnUse" color-interpolation-filters="sRGB">
<feFlood flood-opacity="0" result="BackgroundImageFix"/>
<feColorMatrix in="SourceAlpha" type="matrix" values="0 0 0 0 0 0 0 0 0 0 0 0 0 0 0 0 0 0 127 0"/>
<feOffset dy="4"/>
<feGaussianBlur stdDeviation="2"/>
<feColorMatrix type="matrix" values="0 0 0 0 0 0 0 0 0 0 0 0 0 0 0 0 0 0 0.25 0"/>
<feBlend mode="normal" in2="BackgroundImageFix" result="effect1_dropShadow"/>
<feBlend mode="normal" in="SourceGraphic" in2="effect1_dropShadow" result="shape"/>
</filter>
<linearGradient id="paint0_linear" x1="50.4959" y1="26.0642" x2="50.4959" y2="39.0899" gradientUnits="userSpaceOnUse">
<stop stop-color="#79CFCB"/>
<stop offset="1" stop-color="white"/>
</linearGradient>
</defs>
</svg>
