<svg width="101" height="101" viewBox="0 0 101 101" fill="none" xmlns="http://www.w3.org/2000/svg">
<circle cx="50.8843" cy="50.459" r="50" fill="#B7DEDC"/>
<g filter="url(#filter0_d)">
<path d="M49.1964 76.2498H25.1562V23.0181H49.1964V76.2498Z" fill="#BFBEBE"/>
<path d="M49.1964 76.2498H25.1562V23.0181H49.1964V76.2498Z" fill="url(#paint0_linear)"/>
</g>
<path d="M35.4593 42.7655C35.4593 45.1695 37.3482 47.0584 39.7522 47.0584C40.2674 47.0584 40.6108 47.4018 40.6108 47.917V61.6542C40.6108 62.1693 40.2674 62.5128 39.7522 62.5128C39.2371 62.5128 38.8937 62.1693 38.8937 61.6542V48.6897C35.9745 48.2604 33.7422 45.7705 33.7422 42.7655V31.604C33.7422 31.0889 34.0856 30.7454 34.6008 30.7454C35.1159 30.7454 35.4593 31.0889 35.4593 31.604V42.7655Z" fill="#8592A5"/>
<path d="M38.8937 66.8056C38.8937 66.2905 39.2371 65.9471 39.7522 65.9471C40.2674 65.9471 40.6108 66.2905 40.6108 66.8056V71.0985C40.6108 71.6137 40.2674 71.9571 39.7522 71.9571C39.2371 71.9571 38.8937 71.6137 38.8937 71.0985V66.8056Z" fill="#8592A5"/>
<path d="M27.7322 38.4726C27.7322 37.9575 28.0756 37.614 28.5907 37.614C29.1059 37.614 29.4493 37.9575 29.4493 38.4726V53.927C29.4493 54.4421 29.1059 54.7856 28.5907 54.7856C28.0756 54.7856 27.7322 54.4421 27.7322 53.927V38.4726Z" fill="#8592A5"/>
<path d="M34.6008 52.2098C34.6008 51.6947 34.9442 51.3513 35.4593 51.3513C35.9745 51.3513 36.3179 51.6947 36.3179 52.2098V59.0785C36.3179 59.5936 35.9745 59.937 35.4593 59.937C34.9442 59.937 34.6008 59.5936 34.6008 59.0785V52.2098Z" fill="#8592A5"/>
<path d="M27.7322 26.4526C27.7322 25.9374 28.0756 25.594 28.5907 25.594C29.1059 25.594 29.4493 25.9374 29.4493 26.4526V33.3212C29.4493 33.8363 29.1059 34.1797 28.5907 34.1797C28.0756 34.1797 27.7322 33.8363 27.7322 33.3212V26.4526Z" fill="#8592A5"/>
<path fill-rule="evenodd" clip-rule="evenodd" d="M37.1765 42.7655C37.1765 41.3059 38.2926 40.1898 39.7522 40.1898C41.2118 40.1898 42.328 41.3059 42.328 42.7655C42.328 44.2251 41.2118 45.3412 39.7522 45.3412C38.2926 45.3412 37.1765 44.2251 37.1765 42.7655ZM38.8937 42.7655C38.8937 43.2807 39.2371 43.6241 39.7522 43.6241C40.2674 43.6241 40.6108 43.2807 40.6108 42.7655C40.6108 42.2504 40.2674 41.9069 39.7522 41.9069C39.2371 41.9069 38.8937 42.2504 38.8937 42.7655Z" fill="#8592A5"/>
<path d="M42.328 53.0684C42.328 52.5533 42.6714 52.2098 43.1865 52.2098C43.7017 52.2098 44.0451 52.5533 44.0451 53.0684V68.5228C44.0451 69.0379 43.7017 69.3814 43.1865 69.3814C42.6714 69.3814 42.328 69.0379 42.328 68.5228V53.0684Z" fill="#8592A5"/>
<path fill-rule="evenodd" clip-rule="evenodd" d="M26.015 22.1597H48.338C49.2824 22.1597 50.0551 22.9324 50.0551 23.8768V75.3914C50.0551 76.3358 49.2824 77.1086 48.338 77.1086H26.015C25.0706 77.1086 24.2979 76.3358 24.2979 75.3914V23.8768C24.2979 22.9324 25.0706 22.1597 26.015 22.1597ZM33.7422 75.3914H48.338V23.8768H44.0451V30.7454C44.0451 31.2606 43.7017 31.604 43.1865 31.604C42.6714 31.604 42.328 31.2606 42.328 30.7454V23.8768H40.6108V36.8413C43.53 37.2706 45.7623 39.7605 45.7623 42.7655C45.7623 43.2807 45.4188 43.6241 44.9037 43.6241C44.3885 43.6241 44.0451 43.2807 44.0451 42.7655C44.0451 40.3615 42.1562 38.4726 39.7522 38.4726C39.2371 38.4726 38.8937 38.1292 38.8937 37.614V23.8768H35.4593V26.4526C35.4593 26.9677 35.1159 27.3111 34.6008 27.3111C34.0856 27.3111 33.7422 26.9677 33.7422 26.4526V23.8768H26.015V75.3914H27.7322V59.0785C27.7322 58.5633 28.0756 58.2199 28.5907 58.2199C29.1059 58.2199 29.4493 58.5633 29.4493 59.0785V75.3914H32.025V65.0885C32.025 64.5733 32.3685 64.2299 32.8836 64.2299C33.3988 64.2299 33.7422 64.5733 33.7422 65.0885V75.3914Z" fill="#8592A5"/>
<g filter="url(#filter1_d)">
<path d="M63.3995 30.1108H39.3594V83.3426H63.3995V30.1108Z" fill="url(#paint1_linear)"/>
</g>
<path d="M49.662 63.5955C49.662 61.1915 51.5509 59.3026 53.9549 59.3026C54.47 59.3026 54.8134 58.9592 54.8134 58.444V44.7068C54.8134 44.1917 54.47 43.8482 53.9549 43.8482C53.4397 43.8482 53.0963 44.1917 53.0963 44.7068V57.6713C50.1771 58.1006 47.9448 60.5905 47.9448 63.5955V74.757C47.9448 75.2721 48.2883 75.6156 48.8034 75.6156C49.3186 75.6156 49.662 75.2721 49.662 74.757V63.5955Z" fill="#8592A5"/>
<path d="M41.9348 67.8884C41.9348 68.4035 42.2782 68.747 42.7934 68.747C43.3085 68.747 43.6519 68.4035 43.6519 67.8884V52.434C43.6519 51.9189 43.3085 51.5754 42.7934 51.5754C42.2782 51.5754 41.9348 51.9189 41.9348 52.434V67.8884Z" fill="#8592A5"/>
<path fill-rule="evenodd" clip-rule="evenodd" d="M51.3791 63.5955C51.3791 65.0551 52.4953 66.1712 53.9549 66.1712C55.4144 66.1712 56.5306 65.0551 56.5306 63.5955C56.5306 62.1359 55.4144 61.0198 53.9549 61.0198C52.4953 61.0198 51.3791 62.1359 51.3791 63.5955ZM53.0963 63.5955C53.0963 63.0804 53.4397 62.7369 53.9549 62.7369C54.47 62.7369 54.8134 63.0804 54.8134 63.5955C54.8134 64.1106 54.47 64.4541 53.9549 64.4541C53.4397 64.4541 53.0963 64.1106 53.0963 63.5955Z" fill="#8592A5"/>
<path d="M56.5306 53.2926C56.5306 53.8077 56.874 54.1512 57.3892 54.1512C57.9043 54.1512 58.2477 53.8077 58.2477 53.2926V37.8382C58.2477 37.3231 57.9043 36.9796 57.3892 36.9796C56.874 36.9796 56.5306 37.3231 56.5306 37.8382V53.2926Z" fill="#8592A5"/>
<path fill-rule="evenodd" clip-rule="evenodd" d="M40.2176 84.2013H62.5406C63.4851 84.2013 64.2578 83.4286 64.2578 82.4842V30.9696C64.2578 30.0252 63.4851 29.2524 62.5406 29.2524H40.2176C39.2732 29.2524 38.5005 30.0252 38.5005 30.9696V82.4842C38.5005 83.4286 39.2732 84.2013 40.2176 84.2013ZM47.9448 30.9696H62.5406V82.4842H58.2477V75.6156C58.2477 75.1004 57.9043 74.757 57.3892 74.757C56.874 74.757 56.5306 75.1004 56.5306 75.6156V82.4842H54.8134V69.5197C57.7326 69.0904 59.9649 66.6005 59.9649 63.5955C59.9649 63.0804 59.6215 62.7369 59.1063 62.7369C58.5912 62.7369 58.2477 63.0804 58.2477 63.5955C58.2477 65.9995 56.3589 67.8884 53.9549 67.8884C53.4397 67.8884 53.0963 68.2318 53.0963 68.747V82.4842H49.662V79.9085C49.662 79.3933 49.3186 79.0499 48.8034 79.0499C48.2883 79.0499 47.9448 79.3933 47.9448 79.9085V82.4842H40.2176V30.9696H41.9348V47.2825C41.9348 47.7977 42.2782 48.1411 42.7934 48.1411C43.3085 48.1411 43.6519 47.7977 43.6519 47.2825V30.9696H46.2277V41.2725C46.2277 41.7877 46.5711 42.1311 47.0863 42.1311C47.6014 42.1311 47.9448 41.7877 47.9448 41.2725V30.9696Z" fill="#8592A5"/>
<g filter="url(#filter2_d)">
<path d="M80.6651 74.5335H56.625V21.3018H80.6651V74.5335Z" fill="#BFBEBE"/>
<path d="M80.6651 74.5335H56.625V21.3018H80.6651V74.5335Z" fill="url(#paint2_linear)"/>
<path d="M80.6651 74.5335H56.625V21.3018H80.6651V74.5335Z" fill="url(#paint3_linear)"/>
</g>
<path d="M66.9281 41.0487C66.9281 43.4527 68.817 45.3416 71.221 45.3416C71.7361 45.3416 72.0796 45.685 72.0796 46.2002V59.9374C72.0796 60.4525 71.7361 60.796 71.221 60.796C70.7058 60.796 70.3624 60.4525 70.3624 59.9374V46.9729C67.4432 46.5436 65.2109 44.0537 65.2109 41.0487V29.8872C65.2109 29.3721 65.5544 29.0286 66.0695 29.0286C66.5847 29.0286 66.9281 29.3721 66.9281 29.8872V41.0487Z" fill="#8592A5"/>
<path d="M59.2009 36.7558C59.2009 36.2407 59.5443 35.8972 60.0595 35.8972C60.5746 35.8972 60.9181 36.2407 60.9181 36.7558V52.2102C60.9181 52.7253 60.5746 53.0688 60.0595 53.0688C59.5443 53.0688 59.2009 52.7253 59.2009 52.2102V36.7558Z" fill="#8592A5"/>
<path d="M59.2009 24.7358C59.2009 24.2206 59.5443 23.8772 60.0595 23.8772C60.5746 23.8772 60.9181 24.2206 60.9181 24.7358V31.6044C60.9181 32.1195 60.5746 32.4629 60.0595 32.4629C59.5443 32.4629 59.2009 32.1195 59.2009 31.6044V24.7358Z" fill="#8592A5"/>
<path fill-rule="evenodd" clip-rule="evenodd" d="M68.6452 41.0487C68.6452 39.5891 69.7614 38.473 71.221 38.473C72.6806 38.473 73.7967 39.5891 73.7967 41.0487C73.7967 42.5083 72.6806 43.6244 71.221 43.6244C69.7614 43.6244 68.6452 42.5083 68.6452 41.0487ZM70.3624 41.0487C70.3624 41.5639 70.7058 41.9073 71.221 41.9073C71.7361 41.9073 72.0796 41.5639 72.0796 41.0487C72.0796 40.5336 71.7361 40.1901 71.221 40.1901C70.7058 40.1901 70.3624 40.5336 70.3624 41.0487Z" fill="#8592A5"/>
<path d="M73.7967 51.3516C73.7967 50.8365 74.1401 50.493 74.6553 50.493C75.1704 50.493 75.5139 50.8365 75.5139 51.3516V66.806C75.5139 67.3211 75.1704 67.6646 74.6553 67.6646C74.1401 67.6646 73.7967 67.3211 73.7967 66.806V51.3516Z" fill="#8592A5"/>
<path fill-rule="evenodd" clip-rule="evenodd" d="M57.4838 20.4429H79.8067C80.7512 20.4429 81.5239 21.2156 81.5239 22.16V73.6746C81.5239 74.619 80.7512 75.3918 79.8067 75.3918H57.4838C56.5393 75.3918 55.7666 74.619 55.7666 73.6746V22.16C55.7666 21.2156 56.5393 20.4429 57.4838 20.4429ZM65.2109 73.6746H79.8067V22.16H75.5139V29.0286C75.5139 29.5438 75.1704 29.8872 74.6553 29.8872C74.1401 29.8872 73.7967 29.5438 73.7967 29.0286V22.16H72.0796V35.1245C74.9987 35.5538 77.231 38.0437 77.231 41.0487C77.231 41.5639 76.8876 41.9073 76.3724 41.9073C75.8573 41.9073 75.5139 41.5639 75.5139 41.0487C75.5139 38.6447 73.625 36.7558 71.221 36.7558C70.7058 36.7558 70.3624 36.4124 70.3624 35.8972V22.16H66.9281V24.7358C66.9281 25.2509 66.5847 25.5943 66.0695 25.5943C65.5544 25.5943 65.2109 25.2509 65.2109 24.7358V22.16H57.4838V73.6746H59.2009V57.3617C59.2009 56.8465 59.5443 56.5031 60.0595 56.5031C60.5746 56.5031 60.9181 56.8465 60.9181 57.3617V73.6746H63.4938V63.3717C63.4938 62.8566 63.8372 62.5131 64.3524 62.5131C64.8675 62.5131 65.2109 62.8566 65.2109 63.3717V73.6746Z" fill="#8592A5"/>
<defs>
<filter id="filter0_d" x="21.1562" y="23.0181" width="32.0401" height="61.2317" filterUnits="userSpaceOnUse" color-interpolation-filters="sRGB">
<feFlood flood-opacity="0" result="BackgroundImageFix"/>
<feColorMatrix in="SourceAlpha" type="matrix" values="0 0 0 0 0 0 0 0 0 0 0 0 0 0 0 0 0 0 127 0"/>
<feOffset dy="4"/>
<feGaussianBlur stdDeviation="2"/>
<feColorMatrix type="matrix" values="0 0 0 0 0 0 0 0 0 0 0 0 0 0 0 0 0 0 0.25 0"/>
<feBlend mode="normal" in2="BackgroundImageFix" result="effect1_dropShadow"/>
<feBlend mode="normal" in="SourceGraphic" in2="effect1_dropShadow" result="shape"/>
</filter>
<filter id="filter1_d" x="35.3594" y="30.1108" width="32.0401" height="61.2317" filterUnits="userSpaceOnUse" color-interpolation-filters="sRGB">
<feFlood flood-opacity="0" result="BackgroundImageFix"/>
<feColorMatrix in="SourceAlpha" type="matrix" values="0 0 0 0 0 0 0 0 0 0 0 0 0 0 0 0 0 0 127 0"/>
<feOffset dy="4"/>
<feGaussianBlur stdDeviation="2"/>
<feColorMatrix type="matrix" values="0 0 0 0 0 0 0 0 0 0 0 0 0 0 0 0 0 0 0.25 0"/>
<feBlend mode="normal" in2="BackgroundImageFix" result="effect1_dropShadow"/>
<feBlend mode="normal" in="SourceGraphic" in2="effect1_dropShadow" result="shape"/>
</filter>
<filter id="filter2_d" x="52.625" y="21.3018" width="32.0401" height="61.2317" filterUnits="userSpaceOnUse" color-interpolation-filters="sRGB">
<feFlood flood-opacity="0" result="BackgroundImageFix"/>
<feColorMatrix in="SourceAlpha" type="matrix" values="0 0 0 0 0 0 0 0 0 0 0 0 0 0 0 0 0 0 127 0"/>
<feOffset dy="4"/>
<feGaussianBlur stdDeviation="2"/>
<feColorMatrix type="matrix" values="0 0 0 0 0 0 0 0 0 0 0 0 0 0 0 0 0 0 0.25 0"/>
<feBlend mode="normal" in2="BackgroundImageFix" result="effect1_dropShadow"/>
<feBlend mode="normal" in="SourceGraphic" in2="effect1_dropShadow" result="shape"/>
</filter>
<linearGradient id="paint0_linear" x1="37.1763" y1="23.0181" x2="37.1763" y2="76.2498" gradientUnits="userSpaceOnUse">
<stop stop-color="white"/>
<stop offset="1" stop-color="white" stop-opacity="0"/>
</linearGradient>
<linearGradient id="paint1_linear" x1="51.3794" y1="30.1108" x2="51.3794" y2="83.3426" gradientUnits="userSpaceOnUse">
<stop stop-color="white"/>
<stop offset="1" stop-color="#E0E0E0"/>
</linearGradient>
<linearGradient id="paint2_linear" x1="68.6451" y1="21.3018" x2="68.6451" y2="74.5335" gradientUnits="userSpaceOnUse">
<stop stop-color="white"/>
<stop offset="1" stop-color="white" stop-opacity="0"/>
</linearGradient>
<linearGradient id="paint3_linear" x1="68.6451" y1="21.3018" x2="68.6451" y2="74.5335" gradientUnits="userSpaceOnUse">
<stop stop-color="white"/>
<stop offset="1" stop-color="white" stop-opacity="0"/>
</linearGradient>
</defs>
</svg>
