<svg width="101" height="101" viewBox="0 0 101 101" fill="none" xmlns="http://www.w3.org/2000/svg">
<circle cx="50.8843" cy="50.459" r="50" fill="#B7DEDC"/>
<path d="M80.2012 57.8909L66.0524 46.325L50.8905 54.5175V37.6507L36.7405 26.5669L19.5583 37.6507L20.9169 78.7063L76.1585 80.0586L80.2012 77.6491V57.8909Z" fill="white"/>
<g filter="url(#filter0_d)">
<path d="M69.2466 78.4669V64.0928H60.2115V78.4669H69.2466ZM39.1297 78.4669V64.0928H30.0934V78.4669" fill="#D8DFE3"/>
<path d="M39.1297 78.4669V64.0928H30.0934V78.4669M69.2466 78.4669V64.0928H60.2115V78.4669H69.2466Z" stroke="#64818D" stroke-width="2" stroke-linecap="round" stroke-linejoin="round"/>
<path d="M20.0522 53.9106V38.939V53.9106Z" fill="#D59539"/>
<path d="M80.2886 55.1132V76.0722C80.2886 77.395 79.3888 78.4669 78.2808 78.4669H22.06C20.952 78.4669 20.0522 77.395 20.0522 76.0722V67.0865V53.9106V38.939" stroke="#64818D" stroke-width="2" stroke-linecap="round"/>
<path d="M39.1265 53.3127V43.7295H30.0901V53.3127H39.1265Z" fill="#D8DFE3" stroke="#64818D" stroke-width="2" stroke-linecap="round" stroke-linejoin="round"/>
<path d="M71.4158 44.0673L66.439 40.5323C66.0771 40.2733 65.6583 40.1358 65.2309 40.1358C64.8035 40.1358 64.3847 40.2733 64.0228 40.5323L45.6363 53.5957C44.6831 54.2723 44.3707 55.7426 44.9381 56.8799L45.2838 57.561C45.8539 58.6876 47.0807 59.0541 48.0285 58.379L63.6904 47.2525C64.152 46.9218 64.6862 46.7463 65.2316 46.7463C65.7769 46.7463 66.3112 46.9218 66.7728 47.2525L82.4346 58.3805C83.3824 59.0556 84.6079 58.6892 85.1793 57.5625L85.517 56.8951C86.0911 55.7624 85.7867 54.2906 84.8376 53.6049L79.8448 50.0577L71.4158 44.0673ZM76.777 47.923C75.5756 47.0716 75.4674 46.9804 74.2673 46.1274L76.777 47.923ZM55.2373 39.246C55.5616 38.6064 55.6551 37.8483 55.4979 37.1317C55.3407 36.4152 54.9453 35.7962 54.395 35.4054L36.3209 22.5639C35.9589 22.3049 35.5402 22.1675 35.1127 22.1675C34.6853 22.1675 34.2665 22.3049 33.9046 22.5639L15.8318 35.4054C15.2815 35.7962 14.8861 36.4152 14.7289 37.1317C14.5717 37.8483 14.6651 38.6064 14.9894 39.246C15.1462 39.5549 15.3559 39.8247 15.606 40.0394C15.8561 40.2542 16.1416 40.4094 16.4455 40.4959C16.7494 40.5824 17.0655 40.5985 17.3749 40.5431C17.6843 40.4877 17.9808 40.362 18.2468 40.1734L32.9955 29.6947C33.6312 29.2431 34.3655 29.0037 35.1147 29.0037C35.864 29.0037 36.5982 29.2431 37.234 29.6947L51.98 40.1704C52.246 40.3592 52.5426 40.4851 52.8522 40.5406C53.1618 40.5961 53.478 40.5802 53.782 40.4936C54.0861 40.4071 54.3717 40.2518 54.622 40.0369C54.8722 39.822 55.0819 39.552 55.2387 39.2429L55.2373 39.246Z" fill="#4AADA8" stroke="#64818D" stroke-width="2" stroke-linecap="round"/>
<path d="M49.6689 57.521V78.4455" stroke="#64818D" stroke-width="2" stroke-linecap="round"/>
</g>
<defs>
<filter id="filter0_d" x="9.6543" y="21.1675" width="81.1514" height="66.2994" filterUnits="userSpaceOnUse" color-interpolation-filters="sRGB">
<feFlood flood-opacity="0" result="BackgroundImageFix"/>
<feColorMatrix in="SourceAlpha" type="matrix" values="0 0 0 0 0 0 0 0 0 0 0 0 0 0 0 0 0 0 127 0"/>
<feOffset dy="4"/>
<feGaussianBlur stdDeviation="2"/>
<feColorMatrix type="matrix" values="0 0 0 0 0 0 0 0 0 0 0 0 0 0 0 0 0 0 0.25 0"/>
<feBlend mode="normal" in2="BackgroundImageFix" result="effect1_dropShadow"/>
<feBlend mode="normal" in="SourceGraphic" in2="effect1_dropShadow" result="shape"/>
</filter>
</defs>
</svg>
